<?xml version="1.0" standalone="no"?>
<!DOCTYPE svg PUBLIC "-//W3C//DTD SVG 20010904//EN"
 "http://www.w3.org/TR/2001/REC-SVG-20010904/DTD/svg10.dtd">
<svg version="1.0" xmlns="http://www.w3.org/2000/svg"
 width="570.000000pt" height="570.000000pt" viewBox="0 0 570.000000 570.000000"
 preserveAspectRatio="xMidYMid meet">
<metadata>
Created by potrace 1.11, written by Peter Selinger 2001-2013
</metadata>
<g transform="translate(0.000000,570.000000) scale(0.100000,-0.100000)"
fill="#000000" stroke="none">
<path d="M2600 5282 c0 -7 -9 -12 -20 -12 -11 0 -20 -4 -20 -9 0 -5 -17 -9
-37 -9 -82 -1 -94 -2 -88 -12 4 -6 -1 -7 -11 -3 -13 5 -15 3 -9 -8 8 -12 6
-12 -8 0 -13 11 -17 11 -17 1 0 -8 -2 -11 -5 -8 -7 7 -81 -64 -78 -74 2 -5 -2
-8 -8 -8 -5 0 -7 -5 -4 -10 3 -6 0 -13 -8 -16 -15 -6 -19 -34 -4 -34 6 0 -3
-12 -18 -26 -17 -15 -35 -24 -46 -21 -11 3 -19 1 -19 -5 0 -6 -7 -7 -16 -4
-10 4 -13 2 -8 -6 5 -7 -1 -9 -19 -6 -15 3 -24 1 -21 -3 3 -5 0 -9 -6 -9 -6 0
-8 -5 -4 -12 5 -9 2 -9 -9 1 -13 11 -17 11 -17 1 0 -8 -3 -10 -7 -7 -3 4 -12
-1 -19 -11 -7 -11 -27 -19 -51 -20 -28 -2 -34 0 -23 8 13 8 12 10 -3 10 -19 0
-58 19 -68 34 -4 5 -12 5 -19 1 -9 -5 -11 -4 -6 3 4 7 2 12 -3 12 -6 0 -11 -5
-11 -11 0 -8 -6 -7 -17 2 -15 12 -16 12 -8 -1 6 -11 5 -12 -4 -4 -14 13 -61 6
-61 -8 0 -6 -7 -8 -15 -4 -8 3 -15 1 -15 -4 0 -5 -11 -12 -25 -16 -14 -3 -22
-11 -18 -17 3 -5 1 -7 -5 -3 -6 3 -17 -1 -25 -9 -9 -8 -20 -15 -25 -15 -6 0
-28 -18 -50 -39 -31 -31 -42 -37 -52 -28 -9 9 -11 9 -7 1 4 -7 0 -15 -9 -18
-8 -3 -12 -11 -8 -17 4 -7 3 -10 -2 -7 -5 3 -20 -6 -34 -20 -14 -13 -18 -21
-10 -17 8 4 4 -3 -10 -15 -14 -12 -18 -18 -10 -14 13 7 13 6 1 -10 -16 -20
-18 -130 -2 -149 13 -16 -13 -52 -30 -41 -8 4 -10 3 -5 -4 4 -7 2 -12 -4 -12
-7 0 -9 -7 -6 -16 3 -8 2 -13 -2 -10 -11 7 -37 -11 -37 -26 -1 -7 -7 -12 -14
-10 -9 2 -11 -3 -7 -13 3 -9 2 -13 -4 -10 -6 3 -13 -1 -16 -10 -4 -9 -13 -14
-21 -11 -11 5 -11 2 -2 -16 10 -18 9 -20 -5 -15 -9 4 -15 3 -15 -1 4 -26 -2
-33 -23 -26 -21 6 -22 5 -8 -11 14 -18 14 -18 -12 -1 -16 10 -28 15 -28 11 0
-4 -6 -2 -13 4 -10 8 -19 6 -35 -9 -14 -14 -22 -16 -25 -7 -4 9 -6 9 -6 0 -1
-7 -8 -10 -18 -6 -12 5 -14 3 -8 -7 5 -9 4 -11 -4 -6 -6 4 -18 0 -27 -8 -8 -9
-12 -16 -7 -16 4 0 -3 -6 -17 -13 -14 -7 -26 -23 -28 -35 -2 -12 -8 -22 -13
-22 -5 0 -9 -7 -9 -15 0 -9 -7 -18 -15 -21 -8 -4 -12 -10 -9 -15 3 -5 -2 -12
-10 -15 -9 -3 -13 -10 -10 -15 3 -6 0 -16 -6 -24 -6 -8 -9 -19 -5 -24 4 -7 -1
-8 -12 -4 -10 3 -15 2 -10 -2 4 -5 0 -19 -9 -33 -10 -15 -11 -21 -3 -17 9 6
11 3 6 -9 -4 -10 -7 -20 -7 -22 0 -3 -5 -2 -11 2 -8 4 -8 0 0 -15 9 -16 9 -19
-2 -16 -8 4 -13 -2 -13 -15 0 -11 5 -20 11 -21 5 0 1 -4 -10 -9 -19 -8 -19 -9
-1 -9 16 -1 17 -3 5 -18 -12 -14 -12 -15 -1 -9 11 7 12 4 3 -13 -9 -16 -9 -21
1 -21 9 0 9 -3 -2 -10 -12 -8 -12 -10 -1 -10 8 0 12 -3 9 -6 -3 -3 9 -20 26
-37 35 -34 40 -72 17 -115 -6 -12 -8 -22 -4 -22 4 0 1 -5 -7 -10 -8 -5 -10
-10 -4 -10 6 0 11 -7 11 -15 0 -8 -4 -12 -8 -10 -9 6 -18 -29 -15 -60 2 -14
-1 -22 -6 -18 -6 3 -7 -3 -3 -17 4 -14 3 -20 -3 -16 -5 3 -16 -2 -23 -11 -12
-14 -12 -16 1 -9 8 4 6 0 -5 -8 -11 -9 -25 -14 -33 -11 -7 2 -10 0 -7 -5 5 -9
-7 -14 -27 -11 -4 0 -10 -8 -13 -19 -4 -11 -13 -20 -21 -20 -8 0 -15 -4 -15
-10 -1 -5 -3 -14 -4 -20 -1 -5 -3 -17 -4 -25 0 -8 -6 -15 -12 -15 -5 0 -7 5
-3 12 4 7 3 8 -5 4 -7 -5 -9 -12 -3 -19 13 -18 12 -97 -2 -97 -6 0 -4 -4 4
-10 8 -5 11 -12 8 -16 -4 -4 -3 -16 3 -27 7 -12 7 -17 1 -13 -5 3 -13 -1 -16
-10 -9 -23 -7 -31 4 -14 7 11 9 3 7 -25 -2 -22 1 -49 7 -60 9 -18 8 -19 -9 -5
-17 14 -17 14 -7 -7 16 -28 15 -46 0 -37 -10 6 -10 4 0 -7 16 -17 16 -42 0
-34 -7 4 -5 0 4 -8 10 -8 15 -17 11 -20 -3 -4 -1 -7 6 -7 8 0 11 -8 8 -20 -3
-11 -1 -17 4 -14 5 3 12 -2 15 -10 3 -9 11 -13 18 -9 6 4 5 -1 -3 -10 -12 -15
-12 -17 4 -11 13 6 16 4 10 -6 -5 -8 -3 -11 6 -8 8 3 19 -1 26 -7 6 -7 23 -11
37 -10 14 2 27 -1 27 -6 1 -5 2 -15 3 -21 1 -7 -3 -16 -9 -20 -6 -5 -3 -8 7
-8 17 0 19 -15 4 -39 -6 -9 -5 -12 2 -7 6 3 14 -4 18 -16 13 -38 13 -48 1 -48
-7 0 -6 -4 2 -9 8 -5 15 -20 16 -33 2 -14 8 -22 16 -20 11 3 11 1 2 -9 -10
-10 -9 -17 4 -32 10 -10 13 -17 8 -15 -12 4 -61 -43 -57 -54 1 -5 -4 -8 -10
-8 -9 0 -8 -4 2 -10 13 -8 12 -10 -3 -10 -10 0 -16 -4 -13 -9 4 -5 0 -12 -6
-14 -10 -4 -9 -6 1 -6 11 -1 11 -4 0 -17 -10 -13 -10 -17 0 -24 10 -6 10 -9 1
-15 -9 -6 -9 -10 1 -16 12 -7 12 -9 0 -9 -11 0 -11 -3 -1 -15 7 -8 17 -12 24
-8 6 4 5 -1 -3 -10 -9 -11 -10 -17 -2 -17 6 0 11 -9 11 -19 0 -11 5 -23 10
-26 6 -4 8 -11 5 -16 -4 -5 0 -9 7 -9 9 0 9 -3 -2 -10 -12 -8 -12 -10 5 -10
17 0 17 -2 5 -10 -13 -8 -13 -10 2 -10 12 0 15 -5 11 -17 -4 -11 -3 -14 5 -9
7 4 12 1 12 -9 0 -9 5 -13 11 -9 8 4 9 -1 4 -16 -5 -15 -3 -20 3 -16 6 3 13 2
17 -4 3 -5 1 -10 -5 -10 -7 0 -6 -5 2 -14 7 -8 18 -11 23 -8 6 3 3 -3 -5 -13
-9 -11 -10 -16 -2 -11 7 4 12 2 12 -4 0 -6 4 -9 9 -5 5 3 12 -4 16 -15 3 -11
11 -20 16 -20 6 0 7 -6 3 -12 -5 -8 0 -7 11 2 10 8 16 11 13 5 -3 -5 0 -16 8
-23 11 -10 14 -10 14 0 0 9 3 10 8 2 4 -6 18 -17 32 -24 22 -12 23 -11 13 2
-11 12 -9 14 7 13 11 -1 23 -5 27 -10 5 -4 2 -5 -4 -1 -7 4 -13 2 -13 -4 0 -7
7 -9 16 -6 9 3 18 6 20 6 3 0 2 4 -1 10 -3 6 1 7 9 4 9 -3 16 -11 16 -16 0 -6
8 -4 18 3 9 7 14 10 10 5 -4 -5 0 -15 8 -23 8 -8 12 -20 8 -26 -3 -7 2 -3 11
8 17 20 17 20 11 -1 -5 -15 0 -24 16 -32 23 -12 23 -12 -2 -7 -23 6 -24 5 -5
-6 11 -7 27 -21 36 -31 9 -9 20 -14 24 -10 5 4 5 -1 2 -11 -5 -13 -1 -17 18
-17 14 0 25 -4 25 -10 0 -5 -8 -7 -17 -4 -13 4 -14 3 -5 -3 6 -5 19 -18 28
-29 8 -10 12 -12 8 -4 -4 8 -3 12 1 7 16 -14 13 -46 -3 -39 -10 3 -13 1 -8 -6
3 -6 1 -14 -4 -17 -8 -5 -6 -13 5 -25 16 -18 16 -18 -7 -14 l-23 5 22 -13 c18
-11 20 -16 11 -33 -11 -19 -10 -19 7 -5 11 9 16 10 11 2 -11 -18 3 -52 22 -52
15 0 15 -2 2 -10 -13 -9 -13 -10 0 -11 8 -1 19 -1 24 0 5 1 3 -5 -4 -14 -7 -9
-9 -15 -4 -14 19 3 34 -1 34 -12 0 -11 29 -44 39 -44 3 0 5 -5 5 -11 -1 -6 7
-9 17 -7 11 3 19 1 19 -5 0 -5 9 -12 21 -15 12 -3 18 -10 15 -16 -4 -5 -1 -13
5 -17 8 -4 9 -3 5 4 -4 7 -2 12 3 12 6 0 11 -5 11 -12 0 -6 3 -9 6 -5 4 3 14
-2 23 -11 9 -10 12 -12 7 -5 -6 10 -4 12 8 7 9 -3 16 -12 16 -20 0 -8 5 -14
11 -14 5 0 7 5 4 11 -4 6 2 5 13 -2 12 -7 18 -17 16 -21 -3 -4 -1 -8 5 -8 5 0
11 6 14 13 3 9 8 9 18 -2 12 -12 12 -13 -1 -6 -8 5 -11 4 -7 0 10 -12 39 -16
32 -5 -3 5 0 12 6 16 7 4 9 3 6 -3 -4 -6 6 -19 21 -28 l27 -18 -18 21 c-18 20
-18 20 0 17 10 -2 22 -4 26 -4 5 -1 5 -5 2 -11 -4 -6 1 -7 11 -3 11 4 13 8 6
11 -7 2 -12 7 -12 12 0 13 29 20 36 8 4 -7 3 -8 -4 -4 -8 5 -10 1 -5 -10 4
-11 8 -13 11 -6 2 7 9 9 15 6 8 -5 8 -2 0 7 -7 7 -13 17 -13 21 0 12 38 10 45
-2 5 -8 11 -7 21 1 8 6 14 7 14 2 0 -5 10 -9 23 -10 l22 -1 -22 10 c-13 6 -23
15 -23 20 0 12 10 10 27 -7 8 -8 20 -12 26 -8 6 4 8 0 4 -10 -3 -9 -1 -19 5
-23 6 -4 8 -3 4 4 -4 7 1 10 14 9 22 -1 27 -13 8 -20 -7 -3 4 -3 25 0 20 3 37
1 37 -4 0 -5 7 -18 15 -29 11 -13 14 -14 13 -4 -2 8 -7 18 -12 22 -5 3 2 5 17
5 18 -2 23 -5 16 -14 -7 -7 -6 -14 2 -19 8 -4 9 -3 5 4 -4 7 -2 12 3 12 6 0
11 -7 11 -16 0 -9 5 -12 12 -8 9 5 9 2 -1 -9 -7 -9 -9 -17 -5 -17 5 0 15 -9
22 -21 8 -12 9 -19 4 -15 -5 3 -9 -1 -9 -9 0 -8 4 -12 9 -9 4 3 8 -3 8 -13 0
-15 2 -16 11 -3 9 12 10 11 6 -8 -3 -12 -1 -20 3 -17 15 9 41 -7 31 -19 -7 -8
-3 -12 16 -11 20 0 29 -6 34 -25 4 -14 7 -20 8 -14 1 7 17 10 43 8 23 -2 47 1
53 6 8 7 12 5 12 -5 0 -8 -4 -12 -8 -10 -10 7 -5 -22 6 -32 4 -4 5 -2 1 5 -4
7 -1 15 8 18 9 3 14 9 11 13 -2 4 2 8 10 8 8 0 12 -4 9 -9 -7 -11 10 -10 22 2
7 7 17 3 32 -10 14 -13 22 -16 22 -8 0 10 2 10 8 1 5 -8 13 -9 22 -3 9 5 19 5
27 -2 7 -6 13 -6 13 -1 0 5 9 9 20 9 11 0 20 -6 20 -13 0 -7 10 -12 23 -10 14
1 21 -3 19 -11 -1 -8 2 -11 8 -7 6 4 3 16 -8 33 -9 14 -12 23 -6 19 7 -4 17 0
24 8 13 16 40 10 36 -8 -1 -7 -1 -9 1 -4 3 4 12 7 21 8 12 0 10 3 -6 9 l-22
10 20 20 c14 14 28 19 43 15 17 -5 19 -4 7 4 -13 9 -12 12 5 25 26 20 41 20
25 1 -7 -9 -11 -17 -9 -19 2 -2 12 6 21 19 18 23 18 24 -12 20 -18 -3 -28 0
-25 5 4 6 14 10 24 10 10 0 21 3 25 7 12 12 40 12 49 0 7 -9 10 -9 14 1 6 16
27 16 20 0 -3 -8 4 -13 18 -13 14 0 21 5 18 12 -3 7 -8 11 -12 8 -4 -2 -8 2
-8 9 0 7 10 12 21 11 12 -1 26 1 31 5 6 5 27 2 48 -5 34 -12 36 -11 25 3 -12
13 -10 14 10 3 12 -6 22 -9 22 -6 0 10 46 -48 53 -65 3 -9 6 -10 6 -2 1 6 6
12 12 12 5 0 8 -3 6 -8 -3 -4 7 -16 22 -27 14 -10 21 -13 14 -5 -9 13 -6 15
20 16 18 0 37 -6 43 -15 12 -16 48 -25 38 -10 -3 5 0 9 6 9 6 0 9 4 6 9 -3 5
0 14 8 20 10 9 16 8 26 -4 7 -8 18 -15 24 -15 6 0 4 5 -4 10 -13 8 -13 11 -1
22 8 7 11 9 9 3 -3 -5 0 -16 8 -23 9 -8 14 -9 14 -2 0 6 5 8 12 4 7 -4 8 -3 4
5 -4 6 -11 9 -15 7 -4 -3 -8 1 -8 8 0 17 25 16 31 -1 4 -10 11 -10 31 -1 14 6
25 15 25 20 0 5 -11 1 -25 -8 -14 -9 -25 -12 -25 -6 0 6 9 14 20 17 12 4 17
11 13 18 -3 7 3 4 14 -6 16 -14 23 -15 29 -6 5 8 3 10 -6 4 -8 -5 -11 -3 -9 4
3 7 8 12 12 12 4 -1 20 5 36 13 16 9 31 12 35 9 5 -5 9 9 8 27 0 3 10 7 24 8
13 1 24 -3 24 -8 0 -5 -6 -7 -14 -4 -19 7 -27 -8 -14 -26 8 -12 9 -11 4 4 -5
13 -2 17 8 13 9 -4 21 4 31 19 9 14 21 22 26 18 6 -4 3 6 -7 21 l-18 28 24 -7
c23 -6 23 -6 8 7 -10 8 -15 17 -11 20 3 4 11 2 18 -3 8 -7 12 -5 12 5 0 8 -4
12 -8 10 -3 -3 -12 1 -18 9 -9 11 -6 13 14 11 30 -4 30 -2 8 16 -11 9 -14 10
-9 2 5 -9 2 -11 -9 -6 -9 3 -12 9 -7 12 5 3 8 14 6 24 -1 9 2 17 7 17 6 0 7 4
4 10 -4 6 1 7 12 3 16 -6 16 -5 4 10 -12 15 -12 17 4 11 13 -5 16 -4 11 5 -5
7 -2 10 6 9 7 -2 12 3 10 10 -1 8 2 11 8 7 7 -4 7 -12 0 -25 -7 -13 -7 -21 0
-25 6 -4 10 -3 9 2 -2 15 13 53 22 53 4 0 11 -5 14 -10 3 -5 12 -10 18 -9 9 0
9 2 0 6 -10 3 -10 10 -2 24 5 11 15 17 21 13 7 -4 6 -10 -3 -16 -11 -6 -9 -8
6 -6 12 2 19 -2 17 -10 -1 -8 2 -11 8 -7 7 4 3 16 -10 32 -21 27 -19 46 5 36
10 -3 15 1 15 13 0 16 2 16 10 4 11 -17 -7 -43 -23 -33 -6 4 -7 1 -3 -6 6 -9
12 -9 25 3 10 9 20 14 22 11 4 -4 8 12 11 51 1 12 22 13 34 2 3 -4 -2 -18 -11
-32 -10 -14 -14 -26 -11 -26 3 0 15 15 26 33 11 17 20 26 20 19 0 -7 5 -10 12
-6 6 4 8 3 4 -4 -3 -6 -2 -13 4 -17 5 -3 10 0 10 7 0 10 2 10 9 0 4 -8 22 -15
39 -16 27 -2 29 0 20 17 -7 14 -7 17 1 13 6 -4 11 -2 11 4 0 7 7 5 16 -4 19
-20 25 -20 18 -2 -3 9 3 13 18 13 56 1 64 3 48 13 -9 6 -17 5 -22 -3 -6 -9 -8
-9 -8 0 0 6 5 15 10 18 6 4 7 11 4 17 -4 6 -2 8 3 5 6 -4 18 2 28 13 10 11 24
20 32 20 8 0 12 4 9 8 -3 5 6 19 19 30 14 12 25 18 25 13 0 -5 -10 -16 -22
-26 -22 -16 -22 -16 5 0 21 12 32 13 50 5 21 -11 21 -11 -2 8 -18 15 -22 24
-15 43 4 13 7 27 6 31 -1 5 4 7 11 5 6 -1 11 3 10 10 -2 8 4 10 14 6 12 -5 14
-3 8 8 -7 11 -6 12 6 2 13 -10 15 -10 14 5 0 9 -4 23 -9 30 -7 12 -1 16 18 13
5 -1 6 5 3 13 -4 9 1 20 12 26 21 11 22 65 2 113 -6 16 -8 33 -5 39 5 7 2 8
-6 3 -10 -6 -12 -4 -7 8 3 9 1 19 -5 23 -6 4 -8 3 -5 -2 3 -6 2 -16 -3 -23 -5
-9 -7 -2 -6 18 0 17 5 31 10 31 5 0 6 3 3 7 -9 8 13 34 23 28 11 -7 23 32 15
45 -3 6 1 7 9 4 11 -4 16 0 16 11 0 9 5 13 10 10 6 -4 8 -11 5 -16 -10 -15 2
-10 16 8 8 9 9 14 3 10 -7 -4 -15 0 -18 9 -3 8 -11 12 -17 8 -8 -4 -9 -3 -5 5
4 6 12 9 17 6 5 -4 9 -1 9 5 0 6 5 8 10 5 6 -4 8 -10 6 -14 -3 -4 1 -8 8 -8 7
0 13 6 13 13 0 7 -3 12 -6 10 -3 -2 -12 2 -19 10 -7 8 -8 14 -3 14 5 0 8 12 5
28 -3 20 -2 23 6 12 7 -10 10 -11 11 -2 3 27 4 31 13 39 5 4 6 3 2 -4 -4 -8 2
-11 21 -9 16 2 31 -2 35 -8 5 -8 11 -7 20 3 11 12 10 13 -2 7 -8 -4 -4 1 10
12 13 11 28 20 32 19 3 -1 14 7 23 18 9 11 14 14 10 8 -3 -7 -1 -13 4 -13 6 0
11 7 11 15 0 8 4 15 10 15 5 0 7 -7 4 -15 -4 -8 -2 -15 4 -15 11 0 11 18 -1
38 -5 7 -14 9 -20 5 -7 -4 -7 -1 1 9 13 16 47 14 37 -1 -2 -4 2 -8 10 -8 8 0
16 6 19 13 3 9 -1 11 -11 7 -12 -5 -14 -3 -8 7 5 8 4 11 -2 7 -18 -11 -23 21
-5 35 8 7 13 8 9 2 -4 -7 0 -17 7 -23 10 -9 16 -9 21 -1 4 6 1 9 -7 8 -7 -2
-12 4 -10 14 1 9 -2 19 -8 23 -8 5 -7 11 1 22 10 12 10 16 -2 24 -8 5 -9 9 -4
9 6 0 17 -5 25 -10 13 -8 12 -11 -5 -24 -11 -9 -15 -16 -9 -16 6 0 17 7 24 15
10 13 10 19 -3 33 -15 17 -15 19 0 35 16 16 16 17 -2 17 -15 1 -13 4 10 15 17
7 26 14 20 14 -5 1 -16 5 -23 10 -11 7 -12 12 -1 29 7 11 18 18 25 15 13 -5
14 14 1 33 -8 14 16 37 28 26 5 -4 5 -1 1 6 -4 7 -11 10 -16 7 -5 -3 -11 -1
-15 5 -4 6 -11 7 -17 4 -7 -4 -8 -2 -4 5 4 6 10 9 14 7 4 -2 14 3 22 12 13 14
13 15 -1 10 -9 -3 -22 -2 -30 3 -12 7 -12 9 1 9 11 1 10 4 -4 15 -11 8 -14 15
-7 15 7 0 -1 12 -16 26 -15 15 -21 23 -13 18 9 -5 7 -1 -3 8 -11 10 -24 15
-30 11 -6 -4 -8 0 -4 10 3 9 1 19 -5 23 -7 4 -8 3 -4 -4 4 -7 2 -12 -3 -12 -6
0 -11 5 -11 10 0 6 -8 10 -17 11 -12 0 -13 2 -5 6 10 4 9 9 -5 20 -10 8 -12
12 -5 8 8 -4 12 5 12 34 0 26 5 41 13 42 6 1 1 5 -13 9 -19 6 -20 8 -6 9 15 1
16 4 6 16 -9 11 -9 15 -1 15 8 0 9 5 1 19 -7 14 -7 22 2 27 6 4 8 3 4 -4 -3
-6 -2 -13 3 -16 5 -4 8 2 6 11 -1 10 5 27 14 37 9 11 11 16 4 13 -6 -4 -18 2
-26 13 -7 11 -17 18 -20 15 -4 -3 -4 -2 -1 2 5 8 9 9 35 12 5 0 7 6 4 11 -3 6
1 10 10 10 9 0 13 5 10 10 -4 6 -2 9 3 8 5 -2 18 7 29 19 20 22 36 20 45 -7 3
-8 5 2 5 22 -1 21 -4 32 -8 26 -5 -7 -11 -9 -16 -5 -10 11 19 28 37 22 13 -5
13 -4 0 8 -28 23 -22 39 7 21 l28 -17 -25 24 c-16 15 -25 34 -24 49 1 14 -3
34 -8 45 -8 17 -7 17 10 -2 16 -18 21 -20 26 -8 3 8 2 14 -2 12 -4 -1 -18 6
-32 16 -13 9 -19 17 -12 17 6 0 12 5 12 11 0 6 -8 8 -17 5 -17 -6 -17 -5 0 8
21 16 23 30 2 23 -8 -4 -17 -1 -21 5 -4 7 -3 8 4 4 7 -4 12 -1 12 8 0 9 -3 15
-7 14 -5 -2 -9 2 -10 7 -1 6 6 10 16 9 10 -1 18 5 18 12 0 9 -4 11 -12 4 -18
-15 -36 9 -24 31 7 15 6 17 -11 14 -11 -2 -20 0 -20 6 0 5 5 10 10 10 6 1 14
2 19 3 5 0 13 4 17 8 3 4 -3 6 -15 3 -26 -5 -46 26 -28 45 9 10 9 11 0 6 -12
-7 -18 6 -14 28 1 5 -4 4 -11 -2 -11 -8 -17 -6 -28 11 -8 12 -13 25 -12 30 1
4 -10 7 -25 7 -22 0 -25 2 -13 10 12 8 10 10 -8 10 -13 0 -21 3 -19 8 3 4 -13
8 -36 10 -47 3 -67 16 -67 44 0 12 -4 17 -12 12 -7 -4 -10 -4 -6 1 4 4 3 14
-4 22 -9 11 -7 12 7 7 13 -5 16 -4 11 4 -4 7 -13 12 -20 12 -7 0 -18 12 -25
27 -11 25 -11 25 6 12 17 -13 17 -13 4 4 -8 10 -20 16 -28 13 -8 -4 -11 -1 -8
5 4 6 -1 19 -11 30 -9 10 -13 19 -9 19 4 0 0 9 -10 20 -17 18 -14 25 9 21 5
-1 3 6 -5 15 -10 13 -11 16 -1 10 9 -6 12 -3 10 10 -2 12 2 18 11 16 9 -2 11
3 7 13 -4 12 0 14 20 11 21 -4 24 -3 14 10 -15 17 -24 19 -14 2 4 -7 3 -9 -1
-5 -11 10 -16 39 -6 33 4 -3 6 5 5 17 -1 12 -3 26 -3 30 -1 5 -7 5 -13 1 -8
-5 -7 0 2 11 14 17 13 18 -4 12 -16 -6 -17 -5 -6 8 11 13 11 16 -1 13 -9 -2
-14 5 -13 19 0 17 -3 20 -12 12 -9 -8 -13 -4 -16 13 -2 13 -9 22 -16 20 -6 -1
-11 1 -11 5 3 21 -2 33 -15 33 -8 0 -17 7 -20 16 -6 15 -4 15 11 3 11 -9 14
-10 9 -2 -4 7 -16 18 -28 24 -16 9 -19 8 -13 -2 5 -8 4 -10 -3 -5 -7 4 -12 17
-12 29 0 18 -2 19 -10 7 -8 -12 -10 -12 -10 -1 0 8 -8 20 -17 28 -11 9 -12 12
-3 7 9 -4 12 -3 7 2 -5 5 -13 10 -18 10 -5 1 -13 2 -19 3 -5 0 -10 6 -10 12 0
5 5 7 12 3 7 -4 8 -3 4 4 -4 6 -14 8 -23 5 -12 -5 -14 -3 -8 7 6 10 4 12 -10
6 -14 -5 -16 -4 -6 7 9 12 8 14 -6 14 -35 0 -44 3 -38 13 4 6 3 10 -2 9 -4 -1
-12 0 -18 1 -24 5 -81 -3 -94 -13 -12 -10 -13 -9 -7 3 6 12 4 11 -6 -1 -7 -9
-19 -14 -26 -11 -7 2 -11 0 -10 -5 2 -4 -2 -8 -7 -8 -6 0 -9 3 -8 7 2 5 -4 8
-13 8 -8 0 -13 4 -10 8 2 4 -4 14 -16 21 -11 7 -17 8 -14 2 4 -5 1 -13 -5 -17
-7 -4 -9 -3 -6 3 7 12 -32 67 -41 58 -3 -3 -17 5 -31 17 -14 13 -19 15 -12 5
12 -15 12 -17 -3 -11 -9 3 -16 12 -16 20 0 8 -10 14 -23 14 -13 0 -32 10 -43
22 -10 12 -13 18 -6 14 6 -4 12 -3 12 1 0 5 -6 15 -12 22 -11 10 -9 11 6 5 18
-7 18 -6 0 22 -18 28 -18 29 0 14 18 -14 19 -14 7 8 -10 18 -10 26 0 38 10 12
9 13 -6 8 -13 -5 -16 -4 -11 4 5 8 1 10 -10 5 -12 -4 -15 -3 -10 5 4 8 0 12
-11 12 -14 0 -15 2 -5 9 10 6 8 10 -8 14 -15 4 -21 11 -17 21 4 10 1 13 -8 9
-9 -3 -18 2 -21 12 -5 13 -9 14 -15 3 -6 -9 -9 -9 -9 -1 0 7 -10 17 -21 24
-16 8 -20 8 -14 -1 5 -8 1 -8 -13 1 -12 7 -19 16 -17 19 5 9 -27 6 -42 -3 -6
-4 -15 -2 -19 4 -4 8 -3 9 4 5 7 -4 12 -3 12 2 0 11 -34 22 -68 22 -16 0 -21
4 -16 13 5 7 0 6 -11 -3 -11 -9 -16 -10 -11 -2 7 12 -4 16 -33 13 -7 -2 -11 1
-8 6 3 4 -11 8 -31 8 -21 0 -43 4 -50 9 -9 6 -11 5 -7 -7 7 -17 -10 -33 -20
-18 -7 12 -37 2 -48 -16 -5 -7 -13 -11 -18 -7 -5 3 -9 2 -8 -3 4 -21 -2 -34
-13 -27 -8 5 -9 2 -5 -9 6 -17 -24 -42 -37 -30 -3 3 -25 8 -48 9 -24 2 -44 7
-46 12 -3 9 -56 7 -72 -3 -5 -3 -11 -1 -15 5 -4 7 -12 7 -25 0 -24 -13 -33
-13 -24 1 4 7 -2 9 -17 7 -19 -2 -25 2 -27 20 -2 12 -8 22 -14 22 -6 0 -8 8
-5 19 3 12 -1 18 -12 17 -8 0 -16 5 -16 12 0 8 -8 19 -17 26 -10 7 -18 19 -18
25 0 8 -8 10 -21 6 -16 -5 -19 -4 -14 5 6 10 4 11 -6 4 -19 -12 -119 -12 -119
0 0 5 -7 1 -16 -10 -8 -10 -13 -13 -9 -6 4 7 0 12 -10 12 -10 0 -14 -5 -10
-12 4 -7 -1 -4 -9 6 -9 11 -16 14 -16 8z m255 -51 c3 -5 0 -13 -6 -17 -7 -4
-9 -3 -5 4 3 5 0 13 -6 15 -9 4 -10 6 -1 6 6 1 14 -3 18 -8z m-134 -28 c2 1 3
0 2 -2 -2 -2 5 -10 15 -17 16 -12 16 -13 -1 -10 -10 1 -22 9 -27 16 -5 8 -11
12 -14 10 -2 -3 4 -16 15 -29 10 -13 19 -19 19 -14 0 5 9 9 21 10 16 2 20 -2
16 -18 -5 -18 -3 -18 11 -7 12 9 12 6 -2 -10 -11 -12 -23 -22 -28 -22 -5 0
-16 -7 -24 -15 -12 -12 -12 -15 -2 -15 10 0 9 -3 -2 -10 -12 -8 -12 -10 3 -16
9 -3 15 -10 12 -14 -3 -4 1 -8 8 -7 50 2 65 -23 27 -43 -16 -9 -20 -8 -21 7 0
16 -1 16 -9 -2 -6 -14 -9 -15 -10 -5 0 12 -4 11 -15 -4 -8 -11 -15 -17 -15
-14 0 3 -18 2 -41 -2 -22 -4 -56 -4 -75 0 -32 7 -49 -3 -21 -13 13 -5 -1 -7
-71 -9 -44 -1 -69 12 -58 30 3 6 17 9 31 7 16 -1 25 3 25 11 0 22 1 28 11 47
6 11 6 17 0 17 -5 0 -7 10 -4 23 2 12 5 30 5 39 -1 11 5 15 15 11 10 -4 14 -2
10 4 -4 6 0 16 8 23 11 9 15 9 15 1 0 -7 5 -9 10 -6 6 3 11 -2 11 -12 1 -17 2
-17 6 0 2 9 11 17 19 17 13 0 19 12 15 33 -1 5 3 6 9 2 5 -3 10 -2 10 4 0 5
14 7 31 4 22 -3 29 -1 24 7 -6 9 -2 9 12 1 11 -6 22 -9 24 -8z m-228 -100 c-5
-14 -50 -10 -66 6 -9 9 -8 11 6 6 12 -5 17 -2 17 10 0 9 5 13 10 10 8 -5 7
-12 -2 -23 -12 -15 -11 -16 5 -3 9 7 17 21 18 30 0 12 2 11 8 -4 5 -11 6 -25
4 -32z m915 -25 c2 -4 8 -8 13 -8 6 0 7 5 3 12 -4 7 -3 8 4 4 6 -4 9 -14 6
-24 -5 -15 -4 -15 9 1 14 17 15 17 33 0 10 -10 25 -18 33 -18 9 0 15 -8 15
-18 -1 -9 3 -14 8 -11 5 3 7 12 4 20 -3 8 -1 14 4 14 6 0 10 -5 10 -11 0 -5 4
-8 9 -4 5 3 17 -2 25 -11 9 -9 16 -11 16 -4 0 7 7 5 16 -5 9 -9 23 -14 31 -11
11 5 13 1 7 -16 -6 -19 -5 -21 8 -11 11 10 14 8 14 -12 0 -19 -3 -22 -13 -13
-9 8 -13 7 -13 -2 0 -7 -7 -10 -16 -6 -13 5 -15 2 -11 -14 3 -12 -1 -24 -11
-30 -15 -8 -15 -9 3 -10 17 0 17 -2 5 -10 -8 -5 -10 -10 -5 -10 6 0 15 -11 21
-24 10 -21 9 -23 -4 -18 -11 4 -13 2 -7 -9 7 -11 5 -11 -10 1 -11 9 -16 10
-11 3 10 -18 -2 -16 -21 2 -8 8 -19 13 -24 10 -5 -4 -9 -1 -9 5 0 6 -4 9 -9 5
-5 -3 -17 2 -25 11 -12 11 -16 12 -16 2 0 -9 -3 -9 -8 -2 -4 6 -15 10 -25 8
-14 -2 -15 1 -8 10 8 9 6 13 -7 13 -9 0 -22 -4 -29 -9 -8 -6 -14 -2 -18 13 -6
17 -9 19 -16 8 -7 -12 -9 -12 -9 0 0 8 -6 11 -15 7 -9 -3 -18 1 -21 9 -4 8
-10 12 -15 9 -5 -3 -9 1 -9 10 0 8 -3 16 -7 19 -5 2 -3 3 3 1 6 -1 17 3 24 9
9 9 11 7 8 -8 -1 -11 2 -20 7 -20 6 0 15 -3 21 -7 6 -4 11 -1 11 7 0 8 -4 12
-8 10 -4 -3 -9 2 -12 9 -4 10 0 14 13 11 11 -2 22 1 25 6 4 5 11 6 17 3 7 -4
8 -2 4 5 -6 9 -11 9 -21 1 -9 -8 -14 -6 -19 5 -3 9 -2 13 4 10 16 -10 25 26 9
36 -11 7 -11 11 -2 17 8 5 9 13 3 22 -8 13 -10 12 -10 -2 0 -22 -26 -24 -34
-2 -3 9 -11 12 -18 8 -9 -6 -9 -3 1 9 13 17 62 14 69 -5z m-455 -61 c-4 -7 1
-5 12 3 17 14 17 13 11 -10 l-7 -25 16 25 c14 22 16 23 12 4 -4 -19 -1 -21 27
-18 78 10 95 10 90 2 -3 -5 0 -8 7 -6 17 3 89 -67 89 -87 0 -8 6 -15 13 -15 9
0 9 -2 -1 -9 -11 -6 -10 -10 3 -15 10 -3 15 -12 11 -21 -6 -17 9 -21 19 -5 9
14 25 3 36 -26 8 -22 11 -23 31 -13 13 6 20 8 16 4 -12 -12 15 -34 29 -23 14
11 47 -14 35 -27 -4 -5 0 -4 8 1 24 14 42 14 36 -1 -2 -7 2 -19 10 -26 12 -10
15 -10 12 1 -2 7 3 15 11 18 9 3 12 0 9 -10 -4 -8 0 -15 8 -15 7 0 10 5 7 10
-4 6 -1 7 6 3 7 -5 10 -15 7 -25 -5 -12 -2 -11 9 3 14 19 15 19 37 0 12 -10
18 -14 15 -7 -4 6 -3 14 3 18 10 6 14 -7 10 -35 -1 -8 0 -13 2 -10 33 44 33
44 19 35 -9 -5 -12 -4 -8 2 4 6 19 9 34 7 15 -1 34 3 42 9 10 8 13 9 8 1 -4
-7 0 -14 8 -17 8 -4 16 2 20 14 7 20 33 22 48 4 5 -6 7 -4 4 5 -2 8 -11 14
-18 12 -12 -3 -12 -1 0 10 11 10 14 10 18 1 3 -7 11 -13 19 -13 8 0 14 -6 15
-12 0 -10 2 -10 6 0 2 6 9 12 14 12 5 0 8 -6 6 -12 -1 -7 4 -12 12 -10 12 3
12 0 2 -12 -10 -12 -9 -14 8 -9 15 4 21 1 21 -11 0 -10 5 -14 10 -11 6 3 10 1
10 -4 0 -6 5 -11 11 -11 5 0 7 5 4 10 -10 16 1 11 16 -7 8 -10 9 -14 2 -10 -6
4 -14 4 -17 -1 -5 -8 6 -11 49 -13 11 -1 14 -3 7 -6 -10 -4 -10 -10 3 -29 10
-16 11 -24 4 -24 -8 0 -8 -4 1 -15 9 -11 9 -15 1 -15 -7 0 -9 -4 -6 -10 3 -5
0 -10 -7 -10 -11 0 -11 -2 0 -9 8 -4 13 -14 12 -22 -5 -31 1 -58 15 -72 8 -8
11 -17 8 -21 -4 -3 1 -6 10 -6 19 0 40 -33 29 -45 -4 -5 -1 -5 6 -1 6 4 12 2
12 -4 0 -6 13 -23 28 -38 16 -15 27 -33 24 -40 -2 -7 2 -10 12 -6 16 6 21 -5
16 -36 -1 -12 1 -13 11 -2 14 13 30 16 28 5 -5 -31 4 -44 32 -50 22 -4 27 -8
17 -15 -8 -6 6 -8 39 -5 29 2 50 0 47 -5 -3 -4 2 -9 10 -9 25 -2 30 -4 46 -13
12 -7 13 -6 3 5 -18 18 -16 34 2 19 8 -6 20 -8 26 -4 8 4 9 3 5 -4 -4 -7 -2
-12 3 -12 6 0 10 -3 10 -7 -1 -5 -1 -19 0 -33 1 -20 3 -22 11 -10 8 13 10 12
10 -3 0 -10 7 -25 16 -34 8 -9 12 -23 9 -31 -3 -9 -3 -14 0 -10 11 10 44 -24
38 -38 -3 -8 0 -14 6 -14 6 0 11 -12 11 -26 0 -17 -4 -23 -12 -18 -8 5 -8 2 1
-10 8 -9 10 -16 5 -15 -21 4 -34 -2 -32 -13 2 -7 -2 -12 -7 -11 -6 1 -12 -8
-12 -20 -1 -12 -12 -29 -24 -38 -15 -11 -18 -18 -10 -23 6 -4 11 -22 11 -39 0
-52 4 -76 11 -71 4 2 10 0 14 -6 3 -5 0 -10 -7 -10 -10 0 -10 -2 1 -9 18 -11
25 -44 8 -34 -7 3 -3 -3 7 -15 11 -12 14 -22 8 -22 -8 0 -5 -14 8 -37 23 -43
25 -57 8 -47 -7 5 -8 3 -2 -7 5 -8 7 -23 6 -34 -2 -17 -1 -18 8 -5 10 12 11
11 7 -7 -3 -14 0 -21 7 -20 6 1 11 -6 11 -15 0 -9 4 -20 9 -25 5 -5 6 -2 1 6
-5 9 -4 12 3 7 7 -4 12 -14 12 -22 0 -8 5 -14 11 -14 5 0 7 5 4 10 -3 6 -2 10
4 10 5 0 11 -5 13 -10 2 -6 13 -12 25 -13 17 -1 19 -4 11 -14 -6 -8 -8 -16 -4
-20 3 -3 6 -2 6 3 0 5 9 10 19 10 11 0 17 -4 15 -8 -3 -4 3 -8 13 -9 11 0 13
-3 5 -6 -10 -4 -10 -8 0 -21 11 -14 10 -15 -7 -9 -19 7 -19 6 -2 -7 13 -10 15
-15 5 -18 -11 -4 -11 -8 0 -20 10 -13 10 -17 0 -20 -11 -4 -11 -8 0 -20 10
-13 10 -17 0 -20 -10 -4 -10 -8 1 -21 11 -14 11 -17 0 -18 -11 0 -11 -2 -1 -6
10 -4 9 -9 -5 -20 -10 -8 -13 -12 -6 -9 6 4 14 2 18 -4 3 -5 2 -10 -4 -10 -6
0 -7 -7 -4 -17 4 -11 3 -14 -5 -9 -7 4 -12 3 -12 -3 0 -6 -7 -7 -17 -4 -11 4
-14 3 -9 -5 5 -8 2 -10 -8 -6 -9 4 -18 0 -22 -9 -3 -9 -13 -13 -27 -9 -12 3
-19 2 -15 -3 4 -4 -5 -18 -19 -31 -15 -14 -23 -30 -20 -39 4 -8 1 -14 -6 -12
-7 1 -11 -4 -9 -12 2 -8 -3 -18 -10 -22 -10 -6 -10 -9 -1 -9 7 0 10 -7 7 -15
-4 -9 0 -15 7 -15 9 -1 8 -4 -4 -11 -9 -6 -15 -14 -12 -20 4 -5 1 -9 -5 -9 -6
0 -8 -4 -5 -10 3 -5 1 -10 -5 -10 -6 0 -8 -4 -5 -10 9 -15 15 -51 7 -46 -4 2
-13 -2 -20 -10 -10 -11 -10 -14 0 -15 9 0 9 -2 2 -5 -7 -3 -9 -15 -6 -26 4
-16 2 -20 -10 -15 -12 4 -14 1 -10 -15 3 -11 -1 -24 -9 -29 -12 -7 -12 -9 0
-9 8 0 11 -6 7 -15 -3 -9 1 -18 9 -21 8 -4 15 -15 15 -25 0 -10 4 -19 10 -19
5 0 6 -7 3 -17 -5 -12 -3 -14 7 -8 10 6 12 4 7 -8 -4 -10 -2 -16 6 -14 7 1 12
-6 12 -16 0 -10 7 -22 15 -27 10 -7 11 -10 2 -10 -6 0 -11 -6 -10 -12 2 -7 -3
-12 -10 -10 -8 1 -11 -2 -7 -8 4 -7 -3 -22 -16 -36 -12 -13 -18 -24 -12 -24 6
0 14 6 16 13 4 9 6 9 6 -1 1 -7 -6 -15 -14 -18 -8 -4 -15 -15 -15 -26 0 -10
-4 -16 -10 -13 -9 6 -11 2 -14 -35 -1 -8 -8 -14 -15 -12 -7 1 -10 -2 -6 -8 3
-5 1 -18 -4 -27 -8 -14 -10 -15 -11 -3 0 13 -1 13 -10 0 -8 -12 -10 -12 -10 5
0 17 -2 17 -10 5 -8 -13 -10 -12 -10 4 0 15 -3 17 -11 9 -6 -6 -18 -9 -27 -6
-9 4 -13 2 -9 -4 9 -14 -16 -23 -48 -17 -16 3 -24 1 -21 -5 8 -12 -30 -25 -44
-16 -6 4 -10 3 -9 -2 3 -20 -2 -34 -11 -28 -6 3 -7 -1 -4 -9 3 -9 1 -16 -5
-16 -6 0 -11 -6 -11 -13 0 -8 -12 -24 -27 -38 -14 -13 -23 -18 -18 -10 6 10 4
12 -4 7 -7 -5 -10 -14 -7 -22 3 -9 0 -11 -11 -7 -9 4 -14 2 -11 -3 2 -5 -7
-20 -20 -34 -14 -14 -22 -19 -18 -12 4 6 5 12 2 12 -3 0 -10 -10 -17 -21 -9
-17 -8 -20 3 -14 7 3 5 0 -4 -8 -10 -8 -14 -18 -10 -22 4 -5 -1 -5 -11 -2 -15
6 -16 4 -7 -13 9 -16 8 -20 -7 -20 -15 0 -16 -2 -3 -10 13 -8 13 -10 -2 -10
-11 0 -15 -6 -11 -20 3 -13 0 -20 -8 -21 -8 0 -5 -4 6 -9 11 -5 15 -9 8 -9
-14 -1 -5 -41 9 -41 6 0 4 -8 -3 -17 -10 -11 -10 -14 -1 -9 14 8 15 5 6 -18
-3 -9 -12 -16 -20 -16 -8 0 -14 -4 -14 -10 0 -5 -9 -10 -20 -10 -11 0 -20 -5
-20 -11 0 -5 5 -7 12 -3 7 4 8 3 4 -5 -6 -9 -11 -9 -21 -1 -11 9 -16 6 -21
-14 -4 -17 -13 -26 -26 -26 -10 0 -17 -4 -13 -9 3 -5 0 -13 -6 -17 -8 -4 -9
-3 -5 4 4 7 3 12 -3 12 -6 0 -15 -9 -21 -20 -8 -14 -20 -20 -40 -18 -16 1 -27
5 -25 9 4 6 -41 31 -60 34 -5 0 -9 5 -8 11 1 5 -7 10 -17 10 -10 0 -17 -3 -15
-6 2 -4 -17 -5 -42 -4 -27 2 -55 -3 -68 -12 -12 -8 -25 -11 -29 -7 -4 4 -4 -1
0 -11 6 -16 5 -17 -16 -6 -12 7 -20 8 -16 2 3 -5 -1 -13 -10 -16 -10 -4 -13
-2 -9 7 4 6 0 4 -8 -5 -11 -14 -16 -15 -27 -5 -9 8 -11 9 -6 0 4 -7 -6 -18
-24 -27 -17 -8 -28 -10 -25 -5 4 5 2 9 -4 9 -5 0 -14 -7 -19 -17 -6 -10 -16
-14 -26 -10 -9 4 -15 3 -12 -2 3 -5 -4 -11 -15 -14 -12 -3 -18 -10 -14 -17 4
-7 0 -10 -11 -8 -13 2 -18 -2 -16 -14 2 -11 -3 -18 -14 -18 -10 0 -14 -3 -11
-7 4 -3 1 -13 -6 -21 -9 -13 -9 -14 0 -8 9 5 11 2 7 -8 -3 -9 -10 -16 -16 -16
-5 0 -6 -4 -3 -10 3 -5 1 -10 -6 -10 -8 0 -8 -4 1 -15 15 -18 7 -19 -22 -4
-11 6 -18 7 -15 2 3 -4 -6 -13 -19 -20 -18 -8 -22 -8 -18 0 5 8 2 8 -6 0 -10
-9 -17 -10 -27 -1 -11 9 -12 7 -6 -8 6 -16 4 -17 -8 -7 -11 9 -19 9 -26 2 -14
-14 -36 -2 -26 14 4 8 1 7 -9 -1 -11 -9 -18 -10 -23 -2 -4 6 -13 7 -23 1 -20
-10 -45 -3 -36 10 3 5 -2 9 -10 9 -19 0 -21 16 -3 24 6 3 2 3 -10 1 -12 -3
-25 0 -29 6 -4 8 -3 9 4 5 8 -5 10 -2 6 8 -3 9 -13 16 -21 16 -7 0 -25 11 -39
25 -14 14 -30 23 -35 20 -5 -4 -9 -1 -9 6 0 7 -7 4 -16 -7 -8 -10 -13 -13 -9
-6 4 7 0 12 -10 12 -10 0 -14 -5 -10 -12 4 -7 -1 -4 -9 6 -10 13 -16 15 -16 7
0 -11 -3 -11 -17 0 -14 12 -16 12 -8 0 9 -16 -7 -8 -39 18 -11 9 -16 10 -12 4
9 -16 -10 -18 -19 -3 -5 8 -12 7 -23 -2 -11 -9 -16 -10 -19 -2 -2 7 -13 10
-23 7 -12 -3 -20 0 -20 6 0 15 -63 7 -68 -9 -3 -7 -9 -7 -20 2 -13 11 -14 11
-8 0 5 -9 3 -12 -7 -10 -9 2 -23 -6 -32 -17 -9 -11 -13 -14 -9 -6 4 9 3 12 -3
8 -6 -4 -16 -20 -23 -37 -9 -23 -15 -28 -21 -18 -5 7 -9 8 -9 3 0 -6 -11 -12
-25 -13 -14 -1 -25 3 -25 9 0 5 -4 7 -10 4 -5 -3 -10 0 -10 7 0 9 -3 9 -10 -2
-9 -13 -10 -13 -10 0 0 13 -1 13 -10 0 -8 -13 -10 -13 -10 1 0 19 -40 34 -40
16 0 -7 -7 -3 -16 8 -8 11 -17 19 -19 18 -12 -7 -26 -2 -21 6 3 5 -2 8 -12 7
-9 0 -18 6 -18 14 -1 8 -2 19 -3 23 0 4 -9 3 -19 -2 -16 -8 -18 -5 -18 32 -1
23 -4 52 -7 65 -4 15 -2 20 5 16 7 -5 8 -2 4 5 -5 7 -15 10 -23 6 -14 -5 -14
-3 -2 12 9 11 10 14 2 9 -8 -4 -13 -2 -13 4 0 15 -26 41 -34 33 -3 -4 -6 2 -6
12 0 15 -3 16 -12 7 -8 -8 -16 -6 -29 10 -10 11 -17 24 -14 28 2 3 -2 7 -10 7
-11 0 -12 -4 -4 -14 19 -22 4 -15 -27 13 -16 15 -22 23 -14 18 13 -7 13 -5 1
9 -15 18 -26 23 -16 7 3 -5 1 -10 -4 -10 -6 0 -11 5 -11 11 0 5 -5 7 -10 4 -6
-3 -13 1 -16 9 -3 9 -12 16 -20 16 -8 0 -14 5 -14 10 0 6 -9 10 -20 10 -11 0
-20 5 -20 11 0 5 -4 7 -10 4 -5 -3 -10 0 -11 7 0 10 -2 10 -6 1 -2 -7 -9 -13
-14 -13 -6 0 -8 3 -6 8 3 4 -6 7 -19 7 -13 0 -24 -3 -24 -7 0 -4 -7 -5 -15 -2
-8 4 -21 1 -29 -5 -8 -7 -23 -14 -34 -16 -16 -3 -19 0 -15 12 4 11 2 14 -5 9
-7 -4 -12 -2 -12 4 0 6 -5 8 -12 4 -7 -4 -8 -3 -4 4 3 6 -3 16 -14 22 -12 6
-19 18 -16 25 3 9 0 12 -9 8 -8 -3 -18 2 -21 11 -3 9 -10 13 -15 10 -8 -4 -13
16 -10 38 0 4 -8 10 -19 13 -11 4 -20 11 -20 16 0 6 -6 7 -12 3 -7 -4 -10 -4
-6 1 4 4 2 15 -5 23 -8 11 -8 14 0 9 6 -4 13 -4 16 0 2 5 2 1 0 -7 -2 -10 3
-8 13 5 8 11 20 19 25 17 5 -1 9 3 9 9 0 6 -7 9 -15 6 -8 -4 -17 -2 -21 4 -9
15 15 39 34 33 15 -5 15 -4 0 6 -24 15 -23 30 2 25 11 -2 20 1 20 7 0 5 -7 8
-15 5 -8 -4 -17 -2 -20 3 -4 6 2 11 12 11 17 1 17 2 1 6 -10 2 -18 8 -19 11
-6 48 -3 59 11 56 8 -3 2 2 -15 10 -16 8 -23 15 -15 16 12 0 13 2 1 9 -8 5
-10 14 -6 22 6 9 3 11 -9 6 -10 -4 -15 -3 -11 3 3 6 1 10 -5 10 -7 0 -10 6 -7
14 3 8 3 17 -1 21 -4 4 -7 12 -7 17 0 6 -7 13 -15 15 -13 4 -13 3 0 -6 8 -6
11 -11 6 -11 -5 0 -3 -8 5 -17 12 -17 12 -17 -4 -2 -21 18 -32 63 -14 53 7 -3
1 3 -13 14 -13 11 -25 31 -25 43 0 14 -9 28 -22 35 -13 6 -20 14 -16 17 3 4 1
7 -6 7 -7 0 -9 5 -5 12 4 6 3 8 -3 5 -5 -3 -17 3 -26 14 -10 11 -22 17 -28 13
-17 -10 -68 -11 -62 0 4 5 -3 7 -15 4 -16 -4 -19 -2 -15 10 5 11 3 13 -8 7 -8
-5 -5 2 6 14 11 12 15 22 10 21 -24 -5 -46 1 -40 10 4 6 10 8 15 5 4 -3 6 4 3
15 -3 11 -10 17 -16 13 -6 -4 -7 -1 -1 8 12 20 14 40 3 33 -5 -3 -7 -10 -4
-15 10 -15 -2 -10 -16 8 -10 11 -10 14 -1 9 6 -4 12 -2 12 3 0 6 -4 11 -9 11
-5 0 -4 14 2 30 6 17 15 30 19 30 4 0 8 5 8 11 0 8 -6 7 -17 -2 -15 -12 -16
-12 -10 5 5 12 1 26 -10 38 -14 16 -15 18 -1 13 9 -4 19 -2 23 4 3 6 11 11 18
11 6 0 2 -7 -9 -16 -18 -14 -18 -15 4 -4 13 7 21 17 18 25 -9 25 25 38 54 21
8 -5 4 3 -9 17 -22 25 -23 31 -3 25 4 -2 6 -6 5 -10 -1 -3 3 -8 10 -11 7 -3
13 3 13 14 0 11 -3 19 -7 19 -4 0 -9 7 -12 14 -4 9 -1 13 6 10 7 -2 18 5 25
16 10 16 10 20 0 18 -7 -2 -15 -6 -18 -10 -3 -4 -6 12 -5 36 0 31 4 42 13 39
9 -4 10 -9 1 -19 -18 -22 -4 -16 17 7 14 15 15 20 4 17 -8 -2 -14 3 -12 10 1
8 -2 11 -8 7 -9 -5 -11 8 -10 53 0 4 9 6 20 6 11 -1 17 3 14 7 -3 5 -9 7 -13
5 -4 -3 -12 8 -18 25 -8 21 -8 27 0 22 7 -4 8 0 2 13 -4 10 -7 30 -6 42 0 13
-5 33 -13 44 -8 10 -12 28 -9 39 3 11 0 19 -6 19 -7 0 -9 5 -5 12 4 6 3 8 -3
5 -6 -4 -21 5 -34 20 -13 14 -17 22 -9 18 13 -8 13 -7 1 8 -11 14 -16 15 -29
5 -13 -10 -14 -10 -8 0 4 7 2 12 -6 12 -8 1 -5 7 7 16 19 16 19 16 -5 9 -19
-5 -21 -4 -10 4 8 6 10 11 4 11 -6 0 -11 7 -11 15 0 8 7 15 14 15 8 0 11 5 7
11 -3 6 6 3 22 -6 17 -10 22 -11 12 -2 -21 17 -25 96 -6 115 9 9 9 12 0 12
-14 0 13 47 38 67 16 12 34 7 25 -8 -4 -5 3 -5 17 0 13 5 22 14 21 20 -2 6 4
8 14 4 12 -5 14 -3 8 7 -5 9 -4 11 4 6 9 -6 9 -11 -1 -23 -13 -16 -22 -50 -10
-38 4 4 7 12 7 18 1 7 7 11 14 9 7 -1 10 2 6 8 -9 14 8 13 25 -2 12 -11 12
-10 2 4 -9 11 -10 18 -2 23 14 9 32 -4 23 -18 -4 -7 0 -6 10 2 9 7 17 16 17
19 0 3 -3 2 -7 -1 -3 -4 -12 -2 -20 4 -10 9 -17 8 -28 -1 -18 -15 -20 -5 -3
14 9 9 21 11 41 5 16 -5 25 -4 22 2 -4 5 -13 9 -21 9 -8 0 -14 5 -14 11 0 6 7
8 16 5 11 -4 15 -2 11 8 -6 16 13 66 26 66 5 0 5 5 1 12 -4 7 -3 8 4 4 6 -4 9
-13 5 -21 -3 -8 1 -15 8 -15 7 0 9 3 6 7 -4 3 -1 13 6 21 9 13 9 14 0 8 -10
-5 -11 1 -6 26 3 18 10 38 15 45 5 7 7 17 3 23 -4 6 -1 9 6 8 7 -2 13 2 14 9
0 17 25 41 25 25 0 -7 -4 -12 -9 -12 -11 0 -8 -26 4 -37 4 -4 5 -3 2 3 -4 7 5
29 19 49 18 27 22 41 15 48 -16 16 -13 27 7 28 13 0 14 2 2 6 -22 9 -28 21
-24 55 3 22 0 29 -9 25 -10 -4 -12 3 -9 26 4 23 1 29 -10 25 -16 -7 -23 28 -7
37 5 4 7 10 4 14 -7 12 49 8 58 -4 6 -6 7 -4 4 6 -3 8 3 21 14 27 20 13 26 32
9 32 -5 0 -9 -6 -7 -12 1 -7 -6 -12 -15 -12 -10 1 -16 -2 -13 -6 3 -5 0 -12
-6 -15 -7 -5 -9 -1 -7 11 2 11 10 18 17 16 9 -2 11 3 7 13 -3 9 -2 13 4 10 6
-3 10 -1 10 5 0 6 5 8 10 5 6 -3 10 -1 10 5 0 6 5 8 11 4 8 -5 10 1 7 19 -4
19 -1 24 10 19 11 -4 14 0 10 16 -4 16 -2 19 10 15 9 -4 13 -2 9 4 -3 5 0 10
8 10 8 0 15 -4 15 -9 0 -5 5 -6 12 -2 7 4 8 3 4 -4 -10 -16 7 -15 23 1 9 7 11
7 8 1 -4 -7 0 -15 9 -18 8 -3 13 -2 10 3 -3 5 1 12 10 15 9 4 13 2 8 -5 -4 -7
0 -9 13 -5 11 4 32 2 47 -4 18 -6 25 -6 21 0 -3 6 -1 10 5 10 6 0 8 5 4 11 -4
8 0 8 15 0 14 -8 21 -8 21 -1 0 5 4 10 10 10 5 0 7 -7 4 -15 -4 -8 -2 -15 3
-15 5 0 10 11 11 26 1 17 -2 23 -11 18 -7 -4 -9 -3 -4 2 5 5 13 10 18 10 5 1
14 2 20 3 5 0 7 5 4 11 -3 6 1 7 9 4 9 -3 14 -9 13 -12 -1 -4 3 -8 8 -9 6 -1
9 6 7 17 -4 26 26 59 49 53 11 -3 19 0 19 6 0 7 -4 10 -9 6 -5 -3 -13 0 -17 6
-4 7 -3 9 4 5 6 -3 13 -2 16 3 7 11 25 9 44 -3 11 -7 12 -4 4 11 -7 12 -7 25
-1 34 7 12 9 12 9 -1 1 -12 3 -11 14 3 8 11 17 14 20 8 4 -5 2 -12 -4 -16 -6
-4 -8 -11 -5 -16 9 -13 -9 -11 -25 4 -12 10 -12 9 -1 -6 14 -18 33 -19 32 -2
0 6 8 19 17 29 9 11 12 16 6 13 -7 -4 -15 0 -18 8 -4 12 0 14 19 11 14 -3 23
-1 20 4 -3 5 -1 11 5 15 5 3 10 14 9 23 0 16 -1 16 -7 0 -5 -13 -11 -15 -22
-8 -9 6 -10 10 -3 10 7 0 10 7 6 17 -4 11 -3 14 5 9 11 -6 14 0 11 22 -1 4 -5
6 -11 4 -5 -1 -6 3 -2 10 5 7 9 19 10 25 1 7 12 25 25 40 12 16 19 20 16 11
-3 -9 0 -18 7 -21 16 -6 44 15 39 31 -3 7 1 10 11 6 9 -3 13 -10 10 -15 -3 -5
-3 -9 1 -9 3 0 10 11 15 25 9 23 13 24 31 14 15 -8 19 -8 15 0 -4 6 -4 11 1
11 4 0 25 4 45 9 29 7 35 6 31 -5 -3 -9 1 -14 12 -14 10 0 13 5 9 12 -4 7 -3
8 5 4 9 -6 9 -11 -1 -24 -11 -13 -10 -15 9 -10 20 5 22 4 11 -15 -11 -22 -11
-22 11 -3 17 16 21 17 16 4 -4 -11 1 -21 15 -28 13 -7 20 -8 17 -3 -3 5 7 9
23 9 19 0 26 -4 23 -13 -4 -9 0 -11 11 -7 9 3 13 11 10 16 -4 6 2 5 14 -1 14
-7 23 -8 27 -1 3 5 12 10 18 10 8 0 8 -3 -1 -9 -8 -4 -13 -12 -13 -17 0 -5 -8
-9 -18 -9 -11 0 -22 -2 -25 -5 -3 -3 5 -6 17 -5 23 0 70 28 62 37 -3 2 4 4 15
3 11 -1 23 -5 27 -10 5 -4 2 -5 -4 -1 -7 4 -13 2 -13 -3 0 -12 35 -9 47 4 5 4
2 5 -4 1 -7 -4 -13 -2 -13 3 0 6 7 11 16 11 9 0 12 5 8 12 -5 7 -3 8 5 4 7 -5
10 -14 7 -22 -3 -8 -1 -14 4 -14 6 0 10 8 10 19 0 15 7 18 43 16 33 -2 41 -6
39 -19 -2 -9 2 -16 8 -16 6 0 9 4 6 8 -11 18 23 49 49 46 19 -2 25 2 21 11 -2
7 3 19 12 27 11 9 14 10 8 1 -4 -7 -5 -13 -2 -13 2 0 11 -3 20 -6 9 -3 16 -1
16 6 0 6 -4 8 -10 5 -16 -10 -12 21 5 35 8 7 12 16 9 21 -3 5 3 6 13 2 16 -6
16 -4 -2 17 -11 13 -15 20 -8 17 6 -4 14 -3 18 2 3 6 13 7 22 4 12 -5 14 -3 8
7 -5 9 -4 11 4 6 6 -4 8 -13 4 -19z m93 1 c5 4 5 3 1 -2 -13 -16 -37 -15 -37
1 0 12 3 13 13 4 8 -6 18 -7 23 -3z m128 -30 c-4 -6 0 -14 7 -19 10 -6 10 -9
2 -9 -14 0 -35 35 -26 43 9 10 24 -3 17 -15z m-1306 -104 c2 -1 -5 -15 -15
-31 -15 -24 -15 -26 -1 -15 13 11 16 11 14 0 -1 -7 -6 -20 -10 -28 -5 -8 -6
-12 -2 -8 4 3 16 -1 26 -10 18 -15 38 -22 69 -24 10 -1 9 -5 -3 -14 -10 -7
-24 -21 -33 -31 -8 -10 -12 -12 -8 -3 4 9 0 7 -9 -4 -8 -10 -20 -15 -27 -10
-8 4 -10 3 -5 -4 5 -8 0 -12 -13 -12 -21 0 -64 -38 -56 -50 2 -4 -1 -7 -8 -8
-7 0 -21 -3 -32 -5 -11 -3 -29 3 -40 12 -20 16 -20 16 -1 -6 10 -13 24 -20 30
-16 6 3 2 -3 -10 -14 -11 -11 -30 -24 -42 -27 -18 -6 -22 -3 -22 12 0 11 6 22
13 25 13 5 15 56 3 75 -4 7 -16 17 -28 23 -15 8 -19 8 -13 0 4 -7 1 -10 -7 -9
-7 2 -12 -2 -11 -7 1 -9 -22 -12 -61 -6 -15 2 5 18 33 26 18 5 22 4 16 -5 -5
-9 -4 -11 3 -6 8 4 8 15 2 31 -5 14 -6 24 -2 24 20 -3 32 2 26 12 -3 6 8 3 25
-5 28 -15 30 -15 24 1 -4 11 -3 14 5 9 6 -4 18 4 27 18 9 14 24 23 34 21 11
-2 17 3 17 15 0 10 -6 16 -13 13 -7 -3 -11 -9 -8 -14 6 -9 -35 -3 -44 7 -3 4
2 4 12 1 9 -4 17 -2 17 3 0 15 34 17 58 2 12 -8 25 -12 28 -9 3 3 -3 8 -14 11
-11 4 -23 14 -26 23 -6 13 -3 13 21 -2 16 -10 23 -12 16 -5 -9 9 -9 19 -2 32
9 16 13 17 27 6 9 -7 18 -13 20 -14z m272 -8 c0 -3 -4 -8 -10 -11 -5 -3 -10
-1 -10 4 0 6 5 11 10 11 6 0 10 -2 10 -4z m-421 -79 c-6 -10 -13 -16 -16 -13
-4 3 -12 1 -19 -5 -8 -7 -14 -7 -19 1 -4 6 -1 9 7 8 7 -2 12 2 11 9 -2 8 4 10
14 6 10 -4 14 -2 10 4 -3 5 0 10 8 10 11 0 12 -5 4 -20z m2232 -14 c13 -16 12
-17 -3 -4 -17 13 -22 21 -14 21 2 0 10 -8 17 -17z m-1891 -67 c0 -3 -4 -8 -10
-11 -5 -3 -10 -1 -10 4 0 6 5 11 10 11 6 0 10 -2 10 -4z m-379 -33 c13 -16 12
-17 -3 -4 -10 7 -18 15 -18 17 0 8 8 3 21 -13z m2545 -71 c6 -12 14 -19 18
-15 4 4 4 0 0 -10 -4 -13 -1 -17 15 -17 19 0 26 -11 22 -34 -1 -5 6 -3 15 5
16 13 16 12 4 -11 -12 -22 -12 -24 3 -12 13 11 15 10 10 -9 -4 -15 -3 -20 5
-15 11 7 17 -7 12 -29 -1 -5 1 -7 5 -3 8 8 46 -23 40 -33 -3 -4 3 -13 13 -20
15 -13 16 -12 3 4 -9 11 -10 17 -2 17 6 0 11 -1 11 -2 11 -69 10 -76 -4 -81
-9 -4 -23 4 -36 20 -18 23 -25 23 -21 -1 1 -5 -5 -3 -14 4 -13 11 -14 10 -9
-5 6 -14 4 -16 -6 -10 -10 6 -12 2 -8 -19 3 -14 1 -26 -3 -26 -5 0 -6 -7 -3
-15 4 -8 11 -12 17 -8 6 3 7 1 3 -6 -4 -6 -12 -9 -17 -6 -5 4 -9 0 -9 -7 -1
-7 -6 -3 -13 10 -7 12 -16 20 -20 16 -3 -4 -5 2 -3 13 3 14 -1 20 -12 19 -10
0 -16 5 -14 13 2 9 -3 11 -13 7 -9 -3 -14 -2 -11 3 3 5 -1 12 -10 15 -9 3 -14
13 -11 21 4 10 1 12 -10 8 -11 -4 -14 -2 -9 5 4 7 1 12 -8 12 -8 0 -17 8 -20
18 -3 9 -16 22 -28 27 -13 6 -28 21 -35 35 -7 14 -13 19 -13 11 0 -8 -2 -12
-5 -9 -3 3 -3 12 1 21 5 13 10 14 30 5 13 -6 20 -16 17 -22 -4 -6 0 -6 8 1 12
10 18 10 28 0 10 -9 11 -8 6 8 l-7 20 17 -20 c17 -20 17 -20 10 5 -7 21 -6 23
6 13 10 -8 19 -9 29 -1 12 8 12 9 -2 4 -12 -3 -18 0 -18 9 0 8 5 16 10 16 6 1
14 2 19 3 5 0 13 4 17 8 3 4 -3 6 -14 3 -12 -2 -25 1 -28 7 -4 7 -2 8 4 4 7
-4 12 -2 12 3 0 6 -9 16 -19 23 -10 6 -17 17 -14 25 7 19 46 9 59 -15z m-3019
-386 c-1 -27 -6 -42 -12 -39 -7 4 -7 2 0 -5 6 -6 17 -12 25 -14 8 -2 21 -10
28 -18 8 -8 11 -9 7 -2 -6 12 4 18 39 24 14 2 19 -3 20 -23 1 -17 -3 -25 -10
-22 -8 3 -11 -3 -10 -14 2 -10 -4 -24 -13 -31 -12 -10 -12 -12 -1 -6 13 7 13
5 1 -9 -7 -9 -18 -14 -25 -10 -6 3 -8 2 -3 -2 4 -5 0 -19 -9 -33 -12 -18 -12
-23 -3 -17 8 3 6 0 -4 -8 -10 -8 -15 -21 -11 -31 4 -10 0 -18 -10 -22 -9 -3
-16 -10 -16 -16 0 -5 6 -6 13 -3 6 4 4 0 -5 -8 -10 -8 -14 -18 -10 -22 4 -5 1
-5 -5 -1 -7 4 -13 3 -13 -2 0 -6 -7 -13 -16 -16 -14 -5 -15 -4 -4 9 11 13 10
14 -2 10 -9 -4 -15 0 -15 9 0 8 5 13 11 10 6 -3 2 2 -8 10 -11 9 -15 16 -10
16 6 0 11 6 11 14 0 8 -8 12 -21 10 -12 -3 -15 -2 -8 2 6 3 9 10 6 15 -3 6
-12 5 -21 -3 -14 -11 -15 -10 -8 12 7 23 7 23 -9 7 -20 -20 -40 -13 -32 12 5
12 2 11 -9 -3 -8 -11 -15 -15 -15 -8 0 6 12 23 28 38 15 15 20 22 10 15 -13
-9 -18 -9 -24 0 -4 7 -3 9 4 5 6 -3 14 -1 18 5 5 9 11 7 21 -6 7 -11 13 -14
13 -8 0 7 -7 19 -16 27 -10 10 -11 16 -4 16 7 0 9 7 6 16 -3 8 -2 13 2 11 4
-3 16 7 26 21 19 25 19 25 0 19 -19 -7 -19 -7 0 8 11 8 16 15 10 15 -11 1 35
40 47 40 5 0 6 -8 2 -17 -5 -15 -3 -16 8 -5 10 9 10 15 1 24 -18 18 -14 32 5
17 11 -10 14 -10 9 -1 -6 11 -1 32 9 32 3 0 3 -20 2 -44z m233 -122 c0 -15
-28 -31 -41 -23 -11 7 -10 9 4 9 10 0 15 5 12 10 -3 6 1 10 9 10 9 0 16 -3 16
-6z m-367 -128 c4 4 1 -4 -5 -18 -13 -27 -51 -37 -41 -11 4 11 2 14 -5 9 -17
-10 -15 0 4 19 11 11 20 13 28 5 7 -5 16 -7 19 -4z m3615 -159 c-10 -19 -9
-20 4 -10 18 15 29 7 21 -15 -5 -11 -3 -13 8 -7 11 7 11 5 -1 -10 -8 -10 -10
-16 -4 -12 7 4 17 0 23 -7 8 -10 9 -16 1 -21 -6 -3 -8 -11 -4 -16 3 -5 9 -7
14 -4 14 9 4 -26 -11 -37 -11 -8 -11 -9 3 -4 10 3 20 1 23 -4 4 -6 0 -10 -7
-10 -9 0 -9 -3 2 -10 8 -5 11 -10 7 -10 -5 0 -1 -7 8 -16 11 -11 13 -20 6 -27
-6 -6 -7 -16 -1 -28 7 -12 6 -20 -1 -25 -8 -5 -8 -9 1 -14 9 -6 9 -12 -1 -29
-16 -24 -29 -28 -29 -7 0 8 -7 17 -16 20 -8 3 -12 11 -8 17 4 8 3 9 -5 5 -6
-4 -17 -3 -24 2 -13 10 -45 8 -55 -4 -4 -4 1 -4 11 -1 20 8 23 -11 3 -19 -8
-3 -13 -11 -10 -19 3 -7 -3 -15 -14 -17 -11 -3 -19 0 -19 8 0 7 5 10 10 7 6
-4 7 -1 3 6 -5 7 -14 10 -22 7 -7 -3 -16 0 -20 6 -4 6 -3 8 4 4 6 -3 13 -2 17
4 3 5 1 10 -6 10 -8 0 -7 5 2 17 10 11 10 14 2 9 -13 -7 -17 3 -13 38 1 10 -3
15 -8 12 -5 -3 -9 2 -8 12 0 10 -5 16 -14 14 -12 -3 -13 -1 -3 9 11 10 16 9
29 -7 15 -18 15 -18 5 2 -6 12 -7 25 -3 29 4 5 0 6 -9 2 -13 -4 -16 -1 -11 15
4 16 2 19 -8 13 -9 -5 -11 -4 -6 3 4 7 3 12 -2 12 -6 0 -8 8 -5 19 3 10 0 22
-6 25 -8 5 -8 13 -1 27 6 11 8 25 4 32 -6 8 -3 8 8 -1 9 -8 14 -20 11 -28 -3
-9 1 -14 12 -14 9 0 14 -3 11 -8 -2 -4 7 -13 21 -19 24 -12 25 -11 9 6 -15 16
-15 18 4 16 11 -1 23 -5 27 -10 5 -4 2 -5 -6 0 -10 5 -12 4 -7 -4 12 -18 25
-3 18 21 -5 19 -4 20 10 7 9 -7 14 -17 12 -20 -2 -3 3 -6 11 -6 11 0 12 4 4
14 -6 7 -8 13 -4 13 4 0 3 6 -3 13 -11 13 -12 17 -12 43 0 9 -5 12 -12 8 -7
-4 -8 -3 -4 4 5 9 13 9 27 2 16 -9 17 -14 7 -33z m-3636 -507 c2 -16 1 -27 -4
-24 -4 3 -8 0 -8 -5 0 -6 3 -11 8 -11 4 0 7 -13 7 -30 0 -16 -4 -30 -9 -30 -6
0 -5 -5 2 -12 16 -16 15 -31 0 -22 -9 5 -9 2 1 -9 10 -13 10 -17 1 -17 -10 0
-10 -3 0 -15 10 -12 10 -15 -1 -16 -10 0 -11 -2 -1 -6 6 -2 12 -9 12 -14 0 -6
-5 -7 -11 -3 -8 4 -8 1 -1 -12 11 -22 8 -52 -7 -67 -8 -8 -11 -7 -11 3 0 13
-2 13 -10 0 -9 -14 -11 -6 -10 35 0 3 -5 12 -12 19 -10 10 -15 11 -20 2 -5 -7
-8 -3 -9 9 0 11 -3 14 -6 7 -2 -6 -9 -10 -14 -6 -5 3 -12 -2 -15 -10 -3 -9
-11 -13 -18 -9 -8 5 -8 3 0 -8 19 -26 11 -62 -13 -64 -13 -1 -21 1 -18 3 3 3
0 11 -6 19 -6 7 -8 13 -4 13 4 0 2 7 -5 15 -7 8 -9 15 -4 15 5 0 2 5 -6 10
-11 7 -11 10 -2 10 10 0 10 5 2 20 -9 16 -8 22 5 26 8 3 12 10 9 15 -3 5 -11
6 -17 2 -9 -5 -9 -3 -2 8 12 17 13 39 1 58 -6 9 -5 12 2 7 5 -3 12 0 15 6 2 7
8 9 13 5 5 -4 4 -11 -2 -15 -12 -8 -12 -27 -1 -39 5 -4 8 -3 7 2 -4 20 0 36 8
31 5 -3 8 8 7 23 -1 22 2 28 13 23 11 -4 14 -1 9 12 -4 10 -3 15 3 11 5 -3 14
4 20 15 6 11 15 18 21 15 5 -4 7 -11 4 -16 -4 -5 1 -12 9 -15 9 -3 13 -11 9
-17 -4 -6 -1 -7 7 -2 10 6 10 10 -2 19 -11 8 -13 18 -7 34 10 28 19 29 14 2
-2 -11 0 -18 5 -15 4 3 11 -1 13 -7 4 -9 6 -10 6 -1 1 6 -3 14 -8 17 -14 9 -1
45 14 40 7 -3 15 -18 17 -34z m3732 -11 c-8 -14 -21 -11 -21 5 0 8 6 12 14 9
7 -3 10 -9 7 -14z m-160 -371 c-5 -8 -2 -9 10 -5 13 5 17 3 13 -7 -3 -8 -1
-17 6 -20 7 -2 4 -5 -5 -5 -10 -1 -18 -6 -18 -12 0 -5 5 -7 10 -4 6 3 10 2 10
-2 0 -5 15 -8 33 -8 24 0 32 -4 31 -17 -1 -10 3 -15 8 -12 5 3 7 12 5 18 -3 7
4 18 14 24 10 7 19 19 19 27 0 9 6 12 16 8 12 -4 13 -8 3 -13 -6 -5 -10 -17
-7 -28 3 -10 1 -26 -4 -35 -6 -12 -5 -15 5 -11 19 7 18 -28 -2 -43 -9 -6 -20
-9 -25 -6 -5 4 -6 1 -2 -6 4 -6 13 -8 19 -4 7 3 4 -3 -7 -15 -17 -20 -17 -22
-2 -28 15 -6 15 -7 1 -18 -9 -6 -17 -18 -18 -26 -2 -8 -6 -21 -11 -28 -4 -7
-4 -12 1 -11 21 4 21 -3 3 -21 -12 -12 -18 -26 -13 -33 5 -8 2 -8 -9 1 -13 10
-18 10 -24 1 -5 -8 -3 -9 6 -4 9 6 11 4 5 -5 -6 -10 -11 -9 -21 5 -7 10 -11
22 -8 27 3 5 -3 12 -15 15 -11 3 -19 9 -16 12 2 4 -2 8 -10 8 -8 0 -15 -4 -15
-9 0 -5 -10 -3 -22 3 -20 11 -21 10 -11 -2 6 -8 9 -19 5 -25 -9 -12 -32 -12
-31 0 0 5 -5 13 -13 17 -10 7 -10 9 0 9 7 0 10 5 6 12 -4 6 -3 8 3 5 6 -4 14
0 17 9 9 24 7 36 -4 29 -6 -4 -8 -11 -5 -16 4 -5 4 -9 1 -9 -16 0 -13 20 6 36
14 12 18 14 13 4 -8 -13 -7 -13 11 0 29 22 30 24 14 18 -19 -7 -44 38 -28 49
6 3 8 2 5 -3 -3 -6 2 -15 12 -21 14 -9 18 -8 18 3 0 7 -4 11 -9 8 -4 -3 -8 4
-8 15 0 13 7 21 18 22 15 1 15 2 -1 6 -12 3 -17 11 -14 22 2 10 0 26 -5 35 -9
16 -8 16 12 6 16 -9 20 -9 15 -1 -4 7 -2 18 5 26 8 10 8 15 -1 21 -8 4 -9 3
-5 -4 5 -8 2 -10 -9 -6 -14 6 -14 8 2 20 22 17 26 17 17 2z m-3564 -68 c0 -5
-7 -7 -15 -4 -8 4 -15 8 -15 10 0 2 7 4 15 4 8 0 15 -4 15 -10z m3390 -240 c0
-5 -5 -10 -11 -10 -5 0 -7 5 -4 10 3 6 8 10 11 10 2 0 4 -4 4 -10z m-3243
-167 c6 -8 9 -22 6 -31 -4 -10 -2 -13 5 -8 7 4 12 2 12 -4 0 -6 5 -8 11 -4 7
4 6 -2 -2 -17 -12 -23 -11 -23 6 -9 13 10 16 11 11 2 -5 -8 -1 -19 10 -28 11
-9 13 -13 7 -9 -7 3 -13 1 -13 -4 0 -6 4 -11 9 -11 5 0 16 -11 25 -25 15 -23
15 -24 -1 -19 -10 3 -7 -2 7 -10 14 -8 21 -16 15 -16 -5 0 -4 -4 3 -9 7 -4 15
-19 16 -33 3 -29 -26 -36 -46 -10 -12 16 -11 16 7 2 19 -14 19 -14 6 3 -8 9
-16 16 -18 13 -3 -2 -17 0 -33 4 -24 7 -28 6 -23 -8 5 -12 2 -14 -12 -8 -11 4
-16 4 -12 0 4 -4 1 -14 -6 -22 -7 -10 -8 -13 -1 -9 7 4 14 -5 18 -23 3 -17 7
-33 8 -37 6 -13 -27 -10 -40 3 -10 11 -10 14 0 14 9 0 9 3 -2 9 -8 6 -19 7
-25 3 -5 -3 -3 3 5 13 9 11 10 16 3 11 -8 -4 -13 -2 -13 4 0 6 -5 8 -10 5 -6
-4 -10 -3 -9 2 4 26 -2 44 -13 37 -9 -6 -9 -3 0 9 12 14 11 16 -7 12 -15 -3
-19 0 -14 8 4 7 8 18 9 25 2 10 -1 11 -12 1 -8 -6 -17 -9 -21 -5 -3 3 -1 6 5
6 7 0 12 5 12 11 0 5 -4 8 -9 4 -19 -11 -34 31 -18 52 5 7 4 19 -3 30 -9 16
-10 15 -5 -7 5 -20 4 -22 -5 -10 -29 40 -30 47 -5 44 14 -1 28 3 32 8 3 7 1 8
-5 4 -8 -5 -10 -2 -6 9 6 14 8 14 21 -2 8 -10 12 -13 9 -6 -9 16 23 10 36 -8
8 -12 9 -12 5 1 -5 21 33 39 58 28 20 -9 20 -9 1 6 -14 11 -23 13 -32 5 -8 -7
-14 -7 -19 1 -4 6 -1 9 7 8 7 -2 12 2 11 9 -3 16 28 5 44 -14z m-154 -30 c-3
-7 -10 -10 -15 -7 -6 4 -5 10 3 15 11 7 11 9 1 9 -7 0 -10 5 -6 11 9 15 24 -9
17 -28z m3252 -282 c-3 -5 -1 -12 5 -16 7 -4 7 -12 0 -25 -11 -20 -1 -58 15
-59 6 -1 10 -5 10 -11 0 -5 5 -9 10 -7 6 1 9 6 7 11 -2 5 3 6 11 3 8 -3 22 4
32 15 16 20 18 20 27 4 7 -12 4 -25 -8 -44 -10 -15 -17 -31 -16 -35 1 -5 -2
-6 -8 -2 -8 5 -7 12 2 23 12 15 11 15 -4 4 -10 -8 -15 -22 -12 -37 3 -20 1
-23 -13 -18 -12 5 -15 2 -10 -10 3 -9 2 -17 -3 -17 -13 0 -90 -77 -90 -91 0
-5 -4 -7 -10 -4 -5 3 -10 -2 -10 -11 0 -10 -3 -15 -6 -11 -4 3 -14 -4 -24 -15
-16 -21 -18 -21 -34 -5 -10 9 -12 17 -6 17 6 0 9 4 5 9 -3 5 -1 12 5 16 5 3
10 11 10 16 0 6 -4 7 -10 4 -5 -3 -10 1 -10 9 0 9 -6 16 -12 16 -9 0 -8 4 2
11 11 8 8 9 -15 5 -66 -13 -77 -14 -66 -3 13 13 15 31 3 23 -4 -2 -14 -1 -22
5 -10 5 -11 9 -3 9 7 0 10 7 7 18 -5 14 -4 14 4 2 6 -8 8 -19 5 -25 -3 -5 0
-5 6 1 10 9 10 17 2 33 -8 14 -8 21 -1 21 5 0 10 -6 10 -12 0 -9 3 -8 9 2 6 8
7 18 5 22 -3 4 1 5 9 2 9 -3 21 4 30 16 9 13 18 17 21 11 4 -5 14 -7 23 -4 12
5 14 3 8 -7 -5 -9 -4 -11 4 -6 16 11 2 28 -18 22 -11 -4 -10 -2 4 10 11 8 19
20 17 26 -1 5 7 12 18 15 11 3 17 9 14 14 -3 5 2 9 11 9 9 0 14 -4 11 -8 -2
-4 0 -14 6 -22 8 -12 9 -12 4 3 -3 9 -1 17 4 17 5 0 14 -8 19 -17 6 -10 11
-13 11 -6 0 6 -12 21 -27 32 -19 13 -23 20 -12 21 8 0 20 -4 27 -10 9 -7 9 -7
2 2 -9 10 3 48 16 48 3 0 3 -4 -1 -9z m231 -91 c1 -22 -4 -40 -9 -40 -6 0 -7
3 -4 7 4 3 2 12 -4 19 -7 8 -7 14 1 19 7 4 7 12 0 25 -8 15 -7 18 2 15 7 -3
14 -23 14 -45z m-396 -44 c0 -11 -19 -15 -25 -6 -3 5 1 10 9 10 9 0 16 -2 16
-4z m-2435 -205 c-2 -36 -35 -53 -35 -18 0 7 4 6 10 -3 8 -12 10 -12 10 -1 0
8 -7 19 -15 25 -13 9 -12 11 8 12 16 1 23 -4 22 -15z m30 -11 c4 -6 12 -7 18
-4 7 4 9 4 5 -1 -12 -13 55 -63 76 -57 5 2 3 -5 -5 -14 -13 -16 -12 -16 8 -6
18 10 20 9 16 -7 -5 -20 22 -37 32 -21 4 6 11 10 17 10 6 0 5 -6 -2 -16 -8 -8
-9 -14 -4 -13 19 3 34 -1 34 -12 0 -5 -5 -7 -12 -3 -7 4 -8 3 -4 -4 5 -8 13
-9 25 -3 15 8 17 5 17 -19 0 -19 -4 -26 -13 -23 -7 3 -13 10 -13 15 0 6 -7 8
-15 4 -8 -3 -19 3 -25 12 -11 16 -11 16 -6 0 3 -10 1 -18 -4 -18 -6 0 -10 -7
-10 -15 0 -8 -6 -15 -12 -16 -10 0 -10 -2 0 -6 10 -4 10 -8 0 -21 -7 -9 -8
-13 -3 -10 6 3 20 -5 32 -17 19 -20 20 -24 6 -29 -9 -4 -21 -2 -26 3 -5 5 -16
7 -23 4 -8 -3 -20 0 -28 6 -7 6 -22 9 -32 5 -11 -3 -15 -2 -8 3 8 5 5 14 -9
28 -11 11 -17 14 -13 5 6 -12 5 -12 -6 1 -7 9 -19 14 -25 12 -11 -4 -18 16
-14 40 1 5 -3 6 -9 2 -6 -3 -7 -12 -3 -18 3 -7 -4 -3 -16 8 -13 11 -26 19 -30
17 -3 -2 -10 4 -16 13 -8 12 -5 20 9 31 16 11 17 14 4 14 -9 0 -18 -7 -22 -15
-3 -8 -11 -15 -18 -14 -10 0 -10 2 0 6 10 4 10 8 1 19 -6 8 -15 11 -20 8 -5
-3 -9 0 -9 6 0 7 7 9 16 6 11 -4 15 -2 11 7 -3 8 1 14 9 14 17 0 18 -9 2 -27
-7 -8 0 -4 16 10 22 19 28 21 23 8 -4 -10 -2 -18 3 -18 6 0 10 5 10 11 0 5 6
7 13 3 6 -4 3 3 -8 15 -11 12 -15 22 -10 21 19 -4 50 2 38 7 -10 4 -10 9 -1
26 7 12 11 25 10 30 -3 11 16 9 23 -3z m1908 -219 c4 -1 7 -6 7 -12 0 -8 -4
-8 -14 0 -12 10 -14 9 -10 -6 3 -10 -2 -27 -11 -38 -16 -20 -16 -20 -6 1 6 13
6 25 0 35 -8 12 -10 12 -8 -1 3 -28 -1 -41 -11 -35 -6 3 -7 -1 -4 -9 3 -9 13
-16 21 -16 9 0 13 -6 9 -15 -3 -8 0 -14 7 -12 7 1 11 -3 10 -9 -1 -7 13 -8 42
-4 39 6 42 5 32 -11 -9 -14 -14 -16 -26 -6 -12 10 -13 9 -2 -11 12 -22 11 -23
-8 -12 -12 6 -20 7 -19 3 2 -4 0 -8 -4 -8 -4 0 -14 -9 -22 -20 -9 -12 -15 -15
-16 -7 0 7 -5 10 -10 7 -6 -4 -8 -11 -5 -16 3 -5 -8 -7 -25 -5 -23 3 -33 -2
-42 -18 -11 -20 -11 -20 -19 -1 -4 11 -8 15 -8 9 -1 -7 -13 -20 -28 -30 -27
-17 -28 -17 -13 1 14 17 14 18 -10 5 -28 -15 -65 -19 -82 -9 -17 10 9 40 28
32 9 -3 14 2 14 17 0 14 -4 19 -12 14 -10 -6 -10 -4 0 8 9 11 9 17 2 20 -6 2
-12 13 -12 24 -2 19 -5 20 -36 12 -19 -5 -36 -7 -40 -4 -3 3 0 6 6 6 7 0 12 5
12 11 0 5 -6 7 -12 3 -7 -4 -9 -3 -5 1 10 12 39 16 32 5 -6 -9 21 -7 31 2 3 4
13 4 22 2 13 -4 12 -2 -2 6 -15 10 -20 9 -27 -1 -6 -10 -9 -10 -9 -2 0 7 9 17
20 23 11 6 20 7 20 3 0 -4 5 -1 11 7 9 13 10 12 5 -2 -3 -10 -1 -18 5 -18 6 0
7 -5 3 -12 -4 -7 -3 -8 4 -4 7 4 17 16 22 26 9 16 8 19 -7 14 -17 -5 -17 -5 0
6 9 6 21 9 26 5 5 -3 12 -1 16 5 4 6 11 8 16 5 5 -4 9 0 9 7 0 9 3 9 10 -2 5
-8 10 -11 10 -7 0 4 10 3 21 -4 15 -8 19 -8 15 0 -4 6 0 14 8 17 9 3 16 11 16
17 0 5 -9 2 -20 -8 -19 -17 -20 -17 -20 -1 0 9 4 15 9 11 5 -3 12 -1 15 3 4 8
27 8 69 3z m-1550 -26 c-3 -9 -8 -14 -10 -11 -3 3 -2 9 2 15 9 16 15 13 8 -4z
m402 -105 c-6 -10 15 -15 44 -10 13 2 13 -1 1 -17 -13 -16 -13 -16 8 1 17 14
22 16 22 5 0 -11 2 -11 11 1 9 12 10 11 6 -6 -2 -12 1 -21 8 -21 8 0 11 7 7
16 -5 13 -1 13 23 -3 30 -19 30 -19 13 0 -16 19 -16 20 2 20 10 0 16 -5 13
-10 -4 -5 1 -7 9 -3 9 3 20 1 25 -4 6 -6 19 -6 35 0 14 5 29 7 33 3 3 -4 14
-7 23 -7 9 0 16 -5 15 -12 -2 -7 4 -10 12 -7 11 5 13 2 9 -10 -4 -10 -13 -15
-20 -12 -7 3 -16 1 -19 -5 -9 -14 -27 1 -21 18 4 8 1 11 -5 8 -6 -4 -8 -13 -5
-20 7 -20 -5 -26 -22 -12 -13 10 -14 9 -7 -3 17 -28 14 -41 -13 -51 -15 -5
-35 -14 -45 -19 -10 -6 -21 -8 -26 -6 -4 3 -17 -1 -27 -9 -23 -17 -38 -19 -28
-4 4 7 -2 6 -17 -1 -17 -10 -24 -10 -27 -1 -2 6 -8 11 -13 11 -6 0 -7 -5 -3
-11 4 -8 -1 -9 -16 -4 -17 5 -21 4 -15 -5 5 -9 4 -11 -4 -6 -6 4 -9 12 -6 17
4 5 -3 9 -13 9 -27 0 -46 24 -30 38 20 16 21 16 48 2 24 -13 24 -12 10 5 -9
11 -10 16 -2 11 6 -4 12 -3 12 3 0 5 3 17 7 27 4 10 2 15 -3 11 -6 -3 -10 6
-10 21 1 22 -3 27 -21 25 -38 -4 -23 17 25 36 2 0 0 -3 -3 -9z m35 0 c0 -5 -2
-10 -4 -10 -3 0 -8 5 -11 10 -3 6 -1 10 4 10 6 0 11 -4 11 -10z m-486 -19 c11
-4 15 -10 10 -13 -5 -4 -18 0 -29 8 -20 15 -12 17 19 5z m666 -1 c0 -5 -5 -10
-11 -10 -5 0 -7 5 -4 10 3 6 8 10 11 10 2 0 4 -4 4 -10z m-220 -14 c0 -2 -7
-7 -16 -10 -8 -3 -12 -2 -9 4 6 10 25 14 25 6z m1310 -46 c-8 -5 -19 -10 -25
-10 -5 0 -3 5 5 10 8 5 20 10 25 10 6 0 3 -5 -5 -10z m-350 -159 c0 -6 -4 -13
-10 -16 -5 -3 -10 1 -10 9 0 9 5 16 10 16 6 0 10 -4 10 -9z m-663 -93 c-3 -8
-6 -5 -6 6 -1 11 2 17 5 13 3 -3 4 -12 1 -19z"/>
<path d="M2634 5184 c-18 -14 -18 -15 4 -4 12 6 22 13 22 15 0 8 -5 6 -26 -11z"/>
<path d="M2670 5181 c0 -6 4 -13 10 -16 6 -3 7 1 4 9 -7 18 -14 21 -14 7z"/>
<path d="M2632 5161 c-11 -7 -10 -9 3 -14 9 -4 14 -3 10 2 -3 5 1 12 7 14 7 3
9 6 3 6 -5 0 -16 -3 -23 -8z"/>
<path d="M2535 5140 c3 -5 11 -10 16 -10 6 0 7 5 4 10 -3 6 -11 10 -16 10 -6
0 -7 -4 -4 -10z"/>
<path d="M2590 5140 c0 -5 5 -10 10 -10 6 0 10 5 10 10 0 6 -4 10 -10 10 -5 0
-10 -4 -10 -10z"/>
<path d="M2540 5106 c7 -7 13 -7 20 0 6 6 3 10 -10 10 -13 0 -16 -4 -10 -10z"/>
<path d="M2506 5032 c-3 -5 1 -15 8 -21 11 -10 14 -9 12 3 -3 21 -13 29 -20
18z"/>
<path d="M2501 4988 c-1 -10 4 -18 10 -18 5 0 7 -6 3 -12 -4 -7 -3 -9 1 -5 12
10 16 39 5 32 -5 -3 -11 1 -13 7 -3 8 -6 6 -6 -4z"/>
<path d="M2467 4965 c3 -8 9 -12 14 -9 12 7 11 11 -5 17 -10 4 -13 1 -9 -8z"/>
<path d="M3556 5022 c-3 -5 1 -9 9 -9 8 0 12 4 9 9 -3 4 -7 8 -9 8 -2 0 -6 -4
-9 -8z"/>
<path d="M2914 5009 c-4 -7 -3 -9 4 -5 5 3 13 0 15 -6 4 -9 6 -10 6 -1 1 17
-16 25 -25 12z"/>
<path d="M3075 4980 c-4 -6 1 -7 11 -3 13 5 15 3 9 -7 -5 -9 -4 -11 4 -6 6 4
9 12 6 17 -8 12 -22 12 -30 -1z"/>
<path d="M2883 4948 c-3 -6 -1 -8 5 -4 5 3 12 2 14 -4 2 -5 9 -6 16 -1 10 6 9
10 -7 14 -12 3 -24 0 -28 -5z"/>
<path d="M2254 4909 c-4 -7 -3 -9 4 -5 5 3 13 0 15 -6 4 -9 6 -10 6 -1 1 17
-16 25 -25 12z"/>
<path d="M2200 4901 c0 -6 4 -13 10 -16 6 -3 7 1 4 9 -7 18 -14 21 -14 7z"/>
<path d="M2784 4879 c-2 -4 4 -13 14 -20 9 -7 14 -9 10 -5 -4 5 -1 14 8 20 13
10 12 12 -6 12 -12 0 -23 -3 -26 -7z"/>
<path d="M2834 4868 l-19 -23 23 19 c12 11 22 21 22 23 0 8 -8 2 -26 -19z"/>
<path d="M2180 4860 c-8 -5 -10 -10 -5 -10 6 0 17 5 25 10 8 5 11 10 5 10 -5
0 -17 -5 -25 -10z"/>
<path d="M2686 4857 c3 -10 9 -15 12 -12 3 3 0 11 -7 18 -10 9 -11 8 -5 -6z"/>
<path d="M2865 4860 c-3 -6 1 -7 9 -4 18 7 21 14 7 14 -6 0 -13 -4 -16 -10z"/>
<path d="M2085 4850 c-3 -5 -8 -19 -10 -31 -3 -17 -2 -19 10 -9 8 6 11 19 8
28 -6 15 -5 16 13 2 18 -14 18 -14 5 3 -16 20 -18 20 -26 7z"/>
<path d="M2136 4842 c-3 -5 1 -9 9 -9 8 0 12 4 9 9 -3 4 -7 8 -9 8 -2 0 -6 -4
-9 -8z"/>
<path d="M3266 4827 c3 -10 9 -15 12 -12 3 3 0 11 -7 18 -10 9 -11 8 -5 -6z"/>
<path d="M2555 4820 c-3 -6 1 -7 9 -4 18 7 21 14 7 14 -6 0 -13 -4 -16 -10z"/>
<path d="M2094 4795 c-3 -8 -4 -20 -2 -27 3 -7 7 -1 10 15 6 29 1 36 -8 12z"/>
<path d="M3540 4713 c0 -6 8 -17 18 -24 16 -13 16 -13 2 6 -8 11 -16 22 -17
24 -2 2 -3 0 -3 -6z"/>
<path d="M3634 4709 c-4 -7 -3 -9 4 -5 5 3 13 0 15 -6 4 -9 6 -10 6 -1 1 17
-16 25 -25 12z"/>
<path d="M3675 4700 c2 -27 10 -33 12 -10 1 11 -2 22 -6 24 -4 3 -7 -4 -6 -14z"/>
<path d="M3755 4709 c-4 -6 -5 -12 -2 -15 2 -3 7 2 10 11 7 17 1 20 -8 4z"/>
<path d="M1940 4614 c0 -2 9 -8 20 -14 15 -8 18 -8 14 3 -4 11 -34 21 -34 11z"/>
<path d="M1890 4567 c-12 -20 -11 -21 2 -9 9 7 24 9 34 6 20 -7 19 -6 -6 13
-13 10 -18 8 -30 -10z"/>
<path d="M1908 4543 c7 -3 16 -2 19 1 4 3 -2 6 -13 5 -11 0 -14 -3 -6 -6z"/>
<path d="M1890 4519 c0 -5 5 -7 10 -4 6 3 10 8 10 11 0 2 -4 4 -10 4 -5 0 -10
-5 -10 -11z"/>
<path d="M1827 4509 c10 -10 10 -16 0 -28 -11 -14 -10 -14 6 -2 9 7 17 17 17
21 0 4 -8 11 -17 15 -14 5 -15 4 -6 -6z"/>
<path d="M1754 4466 c1 -8 5 -18 8 -22 4 -3 5 1 4 10 -1 8 -5 18 -8 22 -4 3
-5 -1 -4 -10z"/>
<path d="M1540 4466 c0 -2 7 -6 15 -10 8 -3 15 -1 15 4 0 6 -7 10 -15 10 -8 0
-15 -2 -15 -4z"/>
<path d="M1666 4461 c-3 -4 6 -7 19 -7 14 0 22 2 19 5 -8 8 -34 10 -38 2z"/>
<path d="M1526 4442 c-3 -5 1 -9 9 -9 8 0 15 4 15 9 0 4 -4 8 -9 8 -6 0 -12
-4 -15 -8z"/>
<path d="M1555 4420 c-3 -5 -1 -10 4 -10 6 0 11 5 11 10 0 6 -2 10 -4 10 -3 0
-8 -4 -11 -10z"/>
<path d="M1510 4400 c-9 -6 -10 -10 -3 -10 6 0 15 5 18 10 8 12 4 12 -15 0z"/>
<path d="M1402 4318 c-17 -17 -15 -25 6 -30 12 -4 18 1 19 13 2 24 -10 32 -25
17z m18 -8 c0 -5 -5 -10 -11 -10 -5 0 -7 5 -4 10 3 6 8 10 11 10 2 0 4 -4 4
-10z"/>
<path d="M1480 4209 c0 -27 16 -36 61 -35 56 2 122 -24 143 -56 9 -14 19 -51
23 -84 9 -79 8 -1154 -1 -1225 -11 -89 -57 -127 -161 -134 -27 -2 -53 -4 -57
-4 -4 -1 -6 -10 -5 -22 l1 -21 461 4 c459 5 460 5 555 31 52 14 121 37 153 51
51 23 57 24 57 8 2 -82 40 -223 84 -310 143 -285 398 -430 731 -416 182 8 336
74 457 196 53 54 117 137 141 184 15 28 14 31 -3 42 -17 10 -23 6 -52 -36 -18
-26 -64 -79 -103 -118 -112 -114 -233 -164 -395 -164 -165 0 -301 52 -405 155
-128 126 -186 296 -187 545 -1 138 11 215 43 296 16 40 36 103 44 140 26 113
111 216 225 274 92 46 152 59 265 56 236 -7 381 -119 481 -370 21 -52 38 -82
49 -84 16 -4 17 6 11 120 -4 67 -9 139 -11 158 -2 19 -6 84 -10 145 -4 60 -9
113 -11 117 -13 20 -36 4 -56 -38 -14 -31 -31 -50 -52 -59 -32 -14 -37 -13
-126 28 -161 73 -314 89 -488 53 -70 -14 -195 -63 -234 -91 -22 -14 -22 -14
-39 68 -32 161 -95 282 -204 391 -91 91 -220 160 -340 180 -16 3 -52 11 -80
17 -31 6 -228 13 -507 16 -382 4 -458 3 -458 -8z m848 -96 c134 -31 248 -99
332 -199 72 -86 111 -174 146 -326 13 -54 12 -258 -1 -324 -21 -108 -78 -248
-126 -311 -98 -126 -229 -206 -379 -230 -64 -11 -224 -5 -295 9 l-60 13 -3
677 -2 676 77 15 c102 19 227 19 311 0z"/>
<path d="M4275 4161 c-3 -5 -2 -12 3 -15 5 -3 9 1 9 9 0 17 -3 19 -12 6z"/>
<path d="M1369 3994 c-10 -12 -9 -18 4 -32 11 -10 17 -12 17 -4 0 7 -4 12 -10
12 -5 0 -7 6 -4 14 3 8 12 12 20 9 8 -3 14 -3 14 0 0 13 -30 14 -41 1z"/>
<path d="M1305 3869 c-4 -6 -4 -13 -1 -16 3 -4 6 -1 6 5 0 6 8 13 18 15 15 4
15 5 0 6 -9 0 -20 -4 -23 -10z"/>
<path d="M1310 3829 c0 -5 5 -7 10 -4 6 3 10 8 10 11 0 2 -4 4 -10 4 -5 0 -10
-5 -10 -11z"/>
<path d="M1115 3740 c-10 -11 -13 -20 -7 -20 6 0 16 9 22 20 6 11 9 20 7 20
-2 0 -12 -9 -22 -20z"/>
<path d="M1135 3721 c-3 -5 0 -13 6 -17 7 -4 9 -3 5 4 -3 5 0 13 6 15 9 4 10
6 1 6 -6 1 -14 -3 -18 -8z"/>
<path d="M1093 3695 c4 -8 2 -17 -3 -20 -6 -4 -10 -12 -9 -18 0 -9 2 -8 6 1 2
6 10 9 16 5 7 -3 9 -3 5 2 -4 4 0 14 10 22 16 12 16 13 -2 6 -13 -4 -17 -3
-12 5 4 7 2 12 -4 12 -7 0 -10 -7 -7 -15z"/>
<path d="M1093 3634 c-3 -7 -3 -19 0 -26 3 -7 6 -3 6 10 1 13 5 21 10 17 5 -3
12 -2 15 3 3 5 -2 9 -10 9 -9 0 -18 -6 -21 -13z"/>
<path d="M1050 3540 c0 -5 5 -10 10 -10 6 0 10 5 10 10 0 6 -4 10 -10 10 -5 0
-10 -4 -10 -10z"/>
<path d="M1166 3362 c-3 -5 1 -9 9 -9 8 0 12 4 9 9 -3 4 -7 8 -9 8 -2 0 -6 -4
-9 -8z"/>
<path d="M1187 3166 c-4 -10 -1 -13 8 -9 8 3 12 9 9 14 -7 12 -11 11 -17 -5z"/>
<path d="M1114 2927 c-4 -7 -4 -9 1 -5 4 4 14 3 22 -3 8 -7 13 -8 13 -1 0 15
-28 23 -36 9z"/>
<path d="M1119 2903 c0 -5 -2 -16 -4 -26 -2 -11 -1 -16 3 -13 8 8 14 46 7 46
-3 0 -5 -3 -6 -7z"/>
<path d="M1435 2261 c-3 -5 -2 -12 3 -15 5 -3 9 1 9 9 0 17 -3 19 -12 6z"/>
<path d="M1427 2153 c-4 -3 -7 -11 -7 -17 0 -6 5 -5 12 2 6 6 9 14 7 17 -3 3
-9 2 -12 -2z"/>
<path d="M2068 1653 c7 -3 16 -2 19 1 4 3 -2 6 -13 5 -11 0 -14 -3 -6 -6z"/>
<path d="M2085 1602 c-5 -4 -11 -14 -13 -22 -2 -12 1 -11 11 2 8 10 18 14 22
10 5 -4 5 -1 1 6 -8 14 -8 14 -21 4z"/>
<path d="M1830 4880 c0 -5 5 -10 10 -10 6 0 10 5 10 10 0 6 -4 10 -10 10 -5 0
-10 -4 -10 -10z"/>
<path d="M1750 4790 c-9 -6 -10 -10 -3 -10 6 0 15 5 18 10 8 12 4 12 -15 0z"/>
<path d="M1650 4740 c0 -5 5 -10 10 -10 6 0 10 5 10 10 0 6 -4 10 -10 10 -5 0
-10 -4 -10 -10z"/>
<path d="M1695 4600 c3 -5 8 -10 11 -10 2 0 4 5 4 10 0 6 -5 10 -11 10 -5 0
-7 -4 -4 -10z"/>
<path d="M4183 4620 c2 -8 12 -16 23 -17 13 -2 15 -1 4 4 -8 3 -19 11 -23 17
-6 7 -7 6 -4 -4z"/>
<path d="M4110 4480 c-13 -8 -12 -10 3 -10 9 0 17 5 17 10 0 12 -1 12 -20 0z"/>
<path d="M4193 4475 c0 -8 4 -12 9 -9 5 3 6 10 3 15 -9 13 -12 11 -12 -6z"/>
<path d="M4360 4376 c0 -2 8 -10 18 -17 15 -13 16 -12 3 4 -13 16 -21 21 -21
13z"/>
<path d="M1134 4189 c-4 -7 -3 -9 4 -5 5 3 13 0 15 -6 4 -9 6 -10 6 -1 1 17
-16 25 -25 12z"/>
<path d="M1141 4150 c14 -31 19 -36 19 -24 0 6 -7 19 -16 30 -14 18 -14 18 -3
-6z"/>
<path d="M1116 4131 c-3 -5 1 -11 9 -14 9 -4 12 -1 8 9 -6 16 -10 17 -17 5z"/>
<path d="M1101 4096 c-8 -10 -9 -16 -1 -21 6 -4 9 -1 8 7 -2 7 3 12 10 10 8
-1 11 2 7 8 -8 13 -10 13 -24 -4z"/>
<path d="M1035 3960 c3 -5 8 -10 11 -10 2 0 4 5 4 10 0 6 -5 10 -11 10 -5 0
-7 -4 -4 -10z"/>
<path d="M4547 3759 c7 -7 15 -10 18 -7 3 3 -2 9 -12 12 -14 6 -15 5 -6 -5z"/>
<path d="M4575 3720 c-3 -5 -1 -10 4 -10 6 0 11 5 11 10 0 6 -2 10 -4 10 -3 0
-8 -4 -11 -10z"/>
<path d="M949 3278 c-8 -27 -6 -38 5 -29 7 6 17 7 22 3 4 -4 2 1 -5 11 -12 16
-20 21 -22 15z"/>
<path d="M885 3120 c-4 -6 -11 -8 -16 -5 -15 10 -10 -1 7 -15 12 -11 15 -11
12 1 -2 8 3 13 10 11 8 -1 11 2 7 8 -8 13 -12 13 -20 0z"/>
<path d="M885 3020 c3 -5 8 -10 11 -10 2 0 4 5 4 10 0 6 -5 10 -11 10 -5 0 -7
-4 -4 -10z"/>
<path d="M4670 2850 c0 -5 5 -10 11 -10 5 0 7 5 4 10 -3 6 -8 10 -11 10 -2 0
-4 -4 -4 -10z"/>
<path d="M4615 2840 c3 -5 8 -10 11 -10 2 0 4 5 4 10 0 6 -5 10 -11 10 -5 0
-7 -4 -4 -10z"/>
<path d="M4756 2798 c3 -5 10 -6 15 -3 13 9 11 12 -6 12 -8 0 -12 -4 -9 -9z"/>
<path d="M4585 2660 c3 -5 8 -10 11 -10 2 0 4 5 4 10 0 6 -5 10 -11 10 -5 0
-7 -4 -4 -10z"/>
<path d="M4553 2625 c0 -8 4 -12 9 -9 5 3 6 10 3 15 -9 13 -12 11 -12 -6z"/>
<path d="M1173 2408 c-2 -18 0 -20 7 -8 12 18 13 30 2 30 -4 0 -9 -10 -9 -22z"/>
<path d="M1066 2322 c-3 -5 1 -9 9 -9 8 0 12 4 9 9 -3 4 -7 8 -9 8 -2 0 -6 -4
-9 -8z"/>
<path d="M4210 2053 c0 -1 8 -7 18 -12 13 -7 19 -6 19 2 0 7 -9 13 -19 13 -10
0 -18 -1 -18 -3z"/>
<path d="M4403 2035 c-7 -8 -9 -16 -4 -19 5 -3 12 1 15 10 8 22 4 25 -11 9z"/>
<path d="M4215 2020 c3 -5 8 -10 11 -10 2 0 4 5 4 10 0 6 -5 10 -11 10 -5 0
-7 -4 -4 -10z"/>
<path d="M4150 1979 c0 -5 5 -7 10 -4 6 3 10 8 10 11 0 2 -4 4 -10 4 -5 0 -10
-5 -10 -11z"/>
<path d="M4175 1971 c-3 -5 -2 -12 3 -15 5 -3 9 1 9 9 0 17 -3 19 -12 6z"/>
<path d="M4110 1951 c0 -6 4 -13 10 -16 6 -3 7 1 4 9 -7 18 -14 21 -14 7z"/>
<path d="M4103 1895 c0 -7 6 -11 14 -8 7 3 13 6 13 8 0 2 -6 5 -13 8 -8 3 -14
-1 -14 -8z"/>
<path d="M4190 1820 c-9 -6 -10 -10 -3 -10 6 0 15 5 18 10 8 12 4 12 -15 0z"/>
<path d="M1720 1760 c-9 -6 -10 -10 -3 -10 6 0 15 5 18 10 8 12 4 12 -15 0z"/>
<path d="M1645 1620 c3 -5 8 -10 11 -10 2 0 4 5 4 10 0 6 -5 10 -11 10 -5 0
-7 -4 -4 -10z"/>
<path d="M3479 1514 c-7 -9 -6 -12 6 -10 22 3 40 23 20 23 -8 0 -20 -6 -26
-13z"/>
<path d="M3526 1503 c-6 -14 -5 -15 5 -6 7 7 10 15 7 18 -3 3 -9 -2 -12 -12z"/>
<path d="M3460 1485 c0 -8 29 -12 39 -5 9 5 4 8 -13 8 -14 0 -26 -2 -26 -3z"/>
<path d="M3375 1340 c-3 -5 -1 -10 4 -10 6 0 11 5 11 10 0 6 -2 10 -4 10 -3 0
-8 -4 -11 -10z"/>
<path d="M2515 1309 c-4 -6 -5 -12 -2 -15 2 -3 7 2 10 11 7 17 1 20 -8 4z"/>
<path d="M2433 1297 c-3 -6 -1 -7 5 -3 5 3 12 1 14 -6 3 -8 6 -7 10 3 7 17
-19 22 -29 6z"/>
<path d="M2470 1286 c0 -2 7 -7 16 -10 8 -3 12 -2 9 4 -6 10 -25 14 -25 6z"/>
<path d="M2050 4969 c0 -5 5 -7 10 -4 6 3 10 8 10 11 0 2 -4 4 -10 4 -5 0 -10
-5 -10 -11z"/>
<path d="M3813 4876 c-3 -5 -1 -6 5 -2 5 3 12 1 14 -5 2 -7 8 -7 15 3 10 11 8
14 -8 14 -11 0 -23 -5 -26 -10z"/>
<path d="M4507 4279 c6 -6 9 -17 7 -24 -3 -7 -1 -16 5 -20 7 -4 8 0 4 11 -5
13 -3 15 8 9 8 -5 5 1 -5 13 -11 12 -22 22 -25 22 -3 0 0 -5 6 -11z"/>
<path d="M4480 4236 c0 -2 7 -9 15 -16 9 -7 15 -8 15 -2 0 5 -7 12 -15 16 -8
3 -15 4 -15 2z"/>
<path d="M4506 4188 c3 -5 10 -6 15 -3 13 9 11 12 -6 12 -8 0 -12 -4 -9 -9z"/>
<path d="M4775 3920 c3 -5 8 -10 11 -10 2 0 4 5 4 10 0 6 -5 10 -11 10 -5 0
-7 -4 -4 -10z"/>
<path d="M4911 3547 c2 -1 13 -9 24 -17 19 -14 19 -14 6 3 -7 9 -18 17 -24 17
-6 0 -8 -1 -6 -3z"/>
<path d="M4915 3420 c3 -5 8 -10 11 -10 2 0 4 5 4 10 0 6 -5 10 -11 10 -5 0
-7 -4 -4 -10z"/>
<path d="M4857 3413 c-4 -3 -7 -11 -7 -17 0 -6 5 -5 12 2 6 6 9 14 7 17 -3 3
-9 2 -12 -2z"/>
<path d="M4820 3374 c-11 -12 -10 -18 3 -30 9 -8 13 -9 8 -3 -12 15 -2 41 12
32 6 -3 7 -1 3 5 -9 15 -11 15 -26 -4z"/>
<path d="M4787 3339 c7 -7 15 -10 18 -7 3 3 -2 9 -12 12 -14 6 -15 5 -6 -5z"/>
<path d="M4790 3221 c0 -6 4 -13 10 -16 6 -3 7 1 4 9 -7 18 -14 21 -14 7z"/>
<path d="M4787 3095 c3 -8 9 -12 14 -9 12 7 11 11 -5 17 -10 4 -13 1 -9 -8z"/>
<path d="M907 2849 c7 -7 15 -10 18 -7 3 3 -2 9 -12 12 -14 6 -15 5 -6 -5z"/>
<path d="M4883 2786 c-3 -5 -1 -6 5 -2 5 3 12 1 14 -5 2 -7 8 -7 15 3 10 11 8
14 -8 14 -11 0 -23 -5 -26 -10z"/>
<path d="M4884 2704 c-18 -14 -18 -15 4 -4 12 6 22 13 22 15 0 8 -5 6 -26 -11z"/>
<path d="M4846 2498 c3 -5 10 -6 15 -3 13 9 11 12 -6 12 -8 0 -12 -4 -9 -9z"/>
<path d="M4765 2470 c-4 -6 -11 -7 -17 -4 -7 4 -8 2 -4 -4 4 -7 2 -12 -5 -12
-7 0 -9 -3 -6 -7 4 -3 15 1 25 11 12 10 27 14 38 10 16 -5 16 -4 4 5 -19 13
-27 14 -35 1z"/>
<path d="M4642 2433 c-6 -2 -10 -9 -6 -14 3 -5 -1 -12 -10 -15 -8 -3 -12 -12
-9 -21 4 -10 10 -6 21 17 9 19 20 29 29 26 8 -3 11 -1 8 4 -7 11 -13 11 -33 3z"/>
<path d="M4735 2420 c3 -5 8 -10 11 -10 2 0 4 5 4 10 0 6 -5 10 -11 10 -5 0
-7 -4 -4 -10z"/>
<path d="M4713 2405 c0 -8 4 -12 9 -9 5 3 6 10 3 15 -9 13 -12 11 -12 -6z"/>
<path d="M4600 2280 c-9 -6 -10 -10 -3 -10 6 0 15 5 18 10 8 12 4 12 -15 0z"/>
<path d="M4550 2241 c0 -6 4 -12 8 -15 5 -3 9 1 9 9 0 8 -4 15 -9 15 -4 0 -8
-4 -8 -9z"/>
<path d="M4519 2238 c-6 -21 -5 -38 2 -38 5 0 9 5 9 11 0 5 6 7 13 3 8 -5 8
-2 -2 9 -12 16 -20 21 -22 15z"/>
<path d="M1268 1983 c6 -2 9 -10 6 -15 -4 -7 -2 -8 5 -4 13 9 5 26 -12 25 -9
0 -8 -2 1 -6z"/>
<path d="M4536 1958 c3 -5 10 -6 15 -3 13 9 11 12 -6 12 -8 0 -12 -4 -9 -9z"/>
<path d="M4508 1947 c7 -8 8 -18 4 -22 -4 -5 -1 -5 6 -1 17 10 15 23 -4 30
-13 5 -14 4 -6 -7z"/>
<path d="M4470 1875 c-14 -8 -19 -14 -12 -15 6 0 12 -5 12 -11 0 -5 -4 -8 -9
-4 -5 3 -12 1 -15 -4 -4 -5 2 -8 11 -7 10 2 18 9 18 17 0 8 7 19 15 26 20 17
11 16 -20 -2z"/>
<path d="M4428 1783 c6 -2 9 -10 6 -15 -4 -7 -2 -8 5 -4 13 9 5 26 -12 25 -9
0 -8 -2 1 -6z"/>
<path d="M4380 1761 c-8 -6 -17 -8 -21 -5 -4 2 -11 -1 -15 -7 -4 -7 -3 -9 4
-5 5 3 12 2 14 -2 1 -5 12 -1 22 9 21 21 20 24 -4 10z"/>
<path d="M4406 1742 c-3 -5 1 -9 9 -9 8 0 12 4 9 9 -3 4 -7 8 -9 8 -2 0 -6 -4
-9 -8z"/>
<path d="M4320 1720 c-10 -6 -5 -9 18 -8 22 1 29 4 20 9 -16 11 -20 11 -38 -1z"/>
<path d="M4273 1655 c0 -8 4 -12 9 -9 4 3 8 9 8 15 0 5 -4 9 -8 9 -5 0 -9 -7
-9 -15z"/>
<path d="M4028 1603 c7 -3 16 -2 19 1 4 3 -2 6 -13 5 -11 0 -14 -3 -6 -6z"/>
<path d="M3916 1555 c-9 -26 -7 -32 5 -12 6 10 9 21 6 23 -2 3 -7 -2 -11 -11z"/>
<path d="M3839 1503 c-13 -16 -12 -17 4 -4 16 13 21 21 13 21 -2 0 -10 -8 -17
-17z"/>
<path d="M2010 1396 c0 -2 8 -10 18 -17 15 -13 16 -12 3 4 -13 16 -21 21 -21
13z"/>
<path d="M3840 1380 c-9 -6 -10 -10 -3 -10 6 0 15 5 18 10 8 12 4 12 -15 0z"/>
<path d="M3796 1313 c-6 -14 -5 -15 5 -6 7 7 10 15 7 18 -3 3 -9 -2 -12 -12z"/>
<path d="M3702 1293 c-6 -2 -10 -9 -6 -14 8 -14 21 -11 21 6 0 8 -1 15 -1 14
-1 0 -7 -3 -14 -6z"/>
<path d="M3770 1291 c0 -6 4 -13 10 -16 6 -3 7 1 4 9 -7 18 -14 21 -14 7z"/>
<path d="M3129 1277 c-14 -11 -14 -14 4 -32 20 -20 20 -20 8 3 -13 24 -3 29
18 10 9 -9 12 -9 7 -1 -3 6 -3 13 1 16 5 2 3 2 -4 1 -6 -2 -13 1 -15 6 -2 5
-10 3 -19 -3z"/>
<path d="M3670 1271 c0 -5 7 -12 16 -15 14 -5 15 -4 4 9 -14 17 -20 19 -20 6z"/>
<path d="M3230 1266 c0 -2 7 -7 16 -10 8 -3 12 -2 9 4 -6 10 -25 14 -25 6z"/>
<path d="M2997 1243 c3 -7 6 -13 8 -13 2 0 5 6 8 13 3 8 -1 14 -8 14 -7 0 -11
-6 -8 -14z"/>
<path d="M3655 1241 c-3 -5 -2 -12 3 -15 5 -3 9 1 9 9 0 17 -3 19 -12 6z"/>
<path d="M3050 1219 c0 -5 5 -7 10 -4 6 3 10 8 10 11 0 2 -4 4 -10 4 -5 0 -10
-5 -10 -11z"/>
<path d="M3475 1210 c-3 -5 -1 -10 4 -10 6 0 11 5 11 10 0 6 -2 10 -4 10 -3 0
-8 -4 -11 -10z"/>
<path d="M3373 1183 c0 -9 4 -10 14 -2 7 6 13 12 13 14 0 1 -6 2 -13 2 -8 0
-14 -6 -14 -14z"/>
<path d="M3526 1182 c-3 -5 1 -9 9 -9 8 0 12 4 9 9 -3 4 -7 8 -9 8 -2 0 -6 -4
-9 -8z"/>
<path d="M2895 1169 c-4 -6 -5 -12 -2 -15 2 -3 7 2 10 11 7 17 1 20 -8 4z"/>
<path d="M2930 1159 c0 -5 5 -7 10 -4 6 3 10 8 10 11 0 2 -4 4 -10 4 -5 0 -10
-5 -10 -11z"/>
<path d="M2829 1123 c-8 -9 -9 -14 -2 -10 6 4 13 1 16 -5 3 -7 4 -3 4 10 -1
26 -1 26 -18 5z"/>
<path d="M2471 1126 c2 -2 15 -9 29 -15 24 -11 24 -11 6 3 -16 13 -49 24 -35
12z"/>
<path d="M2610 1120 c0 -5 5 -10 11 -10 5 0 7 5 4 10 -3 6 -8 10 -11 10 -2 0
-4 -4 -4 -10z"/>
<path d="M2587 1099 c7 -7 15 -10 18 -7 3 3 -2 9 -12 12 -14 6 -15 5 -6 -5z"/>
<path d="M2850 1086 c0 -2 7 -7 16 -10 8 -3 12 -2 9 4 -6 10 -25 14 -25 6z"/>
</g>
</svg>
