<?xml version="1.0" standalone="no"?>
<!DOCTYPE svg PUBLIC "-//W3C//DTD SVG 20010904//EN"
 "http://www.w3.org/TR/2001/REC-SVG-20010904/DTD/svg10.dtd">
<svg version="1.0" xmlns="http://www.w3.org/2000/svg"
 width="980.000000pt" height="980.000000pt" viewBox="0 0 980.000000 980.000000"
 preserveAspectRatio="xMidYMid meet">
<metadata>
Created by potrace 1.11, written by Peter Selinger 2001-2013
</metadata>
<g transform="translate(0.000000,980.000000) scale(0.100000,-0.100000)"
fill="#000000" stroke="none">
<path d="M2960 8865 l0 -935 1440 0 1440 0 -3 -2402 c-2 -2246 -4 -2410 -20
-2508 -67 -395 -211 -656 -469 -851 -186 -139 -379 -200 -634 -200 -586 1
-1156 279 -1702 829 -63 63 -117 110 -122 106 -17 -18 -1111 -1536 -1116
-1548 -5 -13 189 -209 321 -323 655 -568 1363 -892 2195 -1005 146 -20 208
-23 535 -23 301 0 395 3 505 18 555 74 988 232 1400 508 310 208 574 472 766
764 300 456 473 1038 524 1757 6 97 10 1274 10 3447 l0 3301 -2535 0 -2535 0
0 -935z"/>
</g>
</svg>
